<?xml version="1.0" encoding="UTF-8"?>
<svg xmlns="http://www.w3.org/2000/svg" xmlns:xlink="http://www.w3.org/1999/xlink" version="1.1" viewBox="0 0 783.3 407.8">
  <defs>
    <style>
      .cls-1 {
        fill: none;
      }

      .cls-2 {
        fill: #2e5a65;
      }

      .cls-2, .cls-3 {
        fill-rule: evenodd;
      }

      .cls-4 {
        fill: #fff;
        stroke: #000;
        stroke-miterlimit: 10;
      }

      .cls-3 {
        fill: #4b8b9c;
      }

      .cls-5 {
        clip-path: url(#clippath);
      }
    </style>
    <clipPath id="clippath">
      <rect class="cls-1" x="278.6" y="174.8" width="226.2" height="35.9"/>
    </clipPath>
  </defs>
  <!-- Generator: Adobe Illustrator 28.7.5, SVG Export Plug-In . SVG Version: 1.2.0 Build 176)  -->
  <g>
    <g id="Calque_1">
      <rect class="cls-4" x=".5" y=".5" width="782.3" height="406.8"/>
      <g class="cls-5">
        <g>
          <path class="cls-3" d="M341.2,203.3h-3.9l-4.9-13.3v13.3h-4.4v-21.3h5.4l5.9,15.6,5.9-15.6h5.4v21.3h-4.4v-13.3l-4.9,13.3ZM353.6,192.6c0-6.2,4.7-11,11-11s11,4.8,11,11-4.7,11-11,11-11-4.8-11-11ZM358.2,192.6c0,3.6,2.8,6.5,6.4,6.5s6.4-2.9,6.4-6.5-2.8-6.5-6.4-6.5-6.4,2.9-6.4,6.5ZM386.3,203.3h-4.4v-17h-5.2v-4.3h15.6l-1.7,4.3h-4.3v17ZM395.1,203.3v-21.3h4.4v21.3h-4.4ZM402.9,192.6c0-6.2,4.7-11,11-11s11,4.8,11,11-4.7,11-11,11-11-4.8-11-11ZM407.5,192.6c0,3.6,2.8,6.5,6.4,6.5s6.4-2.9,6.4-6.5-2.8-6.5-6.4-6.5-6.4,2.9-6.4,6.5ZM441.4,203.3l-8.7-12.3v12.3h-4.4v-18.6l-1.5-2.3v-.3h5.3l9.3,13.6v-13.6h4.4v21.3h-4.4ZM458.7,203.3h-4.4v-17h-5.2v-4.3h15.6l-1.7,4.3h-4.3v17ZM478.2,203.3l-1.6-4.5h-7.6l-1.6,4.5h-5l7.9-21.3h5l7.9,21.3h-5ZM472.8,187.8l-2.3,6.6h4.7l-2.3-6.6ZM500.4,182.7c-1,2.8-1.6,4.1-1.6,4.1-1.2-.4-2.7-.7-4.2-.7-3.7,0-6.4,2.8-6.4,6.5s2.6,6.5,6.2,6.5,5.4-2.3,5.4-4.7,0-.3,0-.5h-2.5l1.3-4h5.7c.2.8.3,2,.3,3.1,0,5.6-3.6,10.5-10.4,10.5s-10.6-4.8-10.6-11,4.6-11,11-11,4.4.4,5.8,1Z"/>
          <path class="cls-2" d="M299.5,174.8h14.5l-15.8,26.9h-19.6l13.2-22.5c1.6-2.7,4.5-4.4,7.7-4.4Z"/>
          <path class="cls-3" d="M302.7,183.8h19.6l-13.3,22.6c-1.5,2.6-4.4,4.2-7.4,4.2h-14.7l15.8-26.9Z"/>
        </g>
      </g>
    </g>
  </g>
</svg>