<?xml version="1.0" encoding="UTF-8"?>
<svg xmlns="http://www.w3.org/2000/svg" xmlns:xlink="http://www.w3.org/1999/xlink" version="1.1" viewBox="0 0 783.3 407.8">
  <defs>
    <style>
      .cls-1 {
        fill: none;
      }

      .cls-2 {
        fill: #2e5a65;
      }

      .cls-2, .cls-3 {
        fill-rule: evenodd;
      }

      .cls-4 {
        fill: #fff;
        stroke: #000;
        stroke-miterlimit: 10;
      }

      .cls-3 {
        fill: #4b8b9c;
      }

      .cls-5 {
        clip-path: url(#clippath);
      }
    </style>
    <clipPath id="clippath">
      <rect class="cls-1" x="160.6" y="165.9" width="449" height="71.2"/>
    </clipPath>
  </defs>
  <!-- Generator: Adobe Illustrator 28.7.5, SVG Export Plug-In . SVG Version: 1.2.0 Build 176)  -->
  <g>
    <g id="Calque_1">
      <rect class="cls-4" x=".5" y=".5" width="782.3" height="406.8"/>
      <g class="cls-5">
        <g>
          <path class="cls-3" d="M285,222.4h-7.7l-9.8-26.3v26.3h-8.8v-42.3h10.8l11.7,31,11.7-31h10.8v42.3h-8.8v-26.3l-9.8,26.3ZM309.6,201.3c0-12.4,9.4-21.8,21.8-21.8s21.8,9.4,21.8,21.8-9.4,21.8-21.8,21.8-21.8-9.4-21.8-21.8ZM318.7,201.3c0,7.2,5.5,13,12.7,13s12.6-5.8,12.6-13-5.5-13-12.6-13-12.7,5.8-12.7,13ZM374.4,222.4h-8.8v-33.7h-10.3v-8.5h31.1l-3.5,8.5h-8.5v33.7ZM391.9,222.4v-42.3h8.8v42.3h-8.8ZM407.5,201.3c0-12.4,9.4-21.8,21.7-21.8s21.8,9.4,21.8,21.8-9.4,21.8-21.8,21.8-21.7-9.4-21.7-21.8ZM416.5,201.3c0,7.2,5.5,13,12.7,13s12.6-5.8,12.6-13-5.5-13-12.6-13-12.7,5.8-12.7,13ZM484,222.4l-17.2-24.4v24.4h-8.8v-37l-2.9-4.7v-.6h10.4l18.5,26.9v-26.9h8.8v42.3h-8.8ZM518.2,222.4h-8.8v-33.7h-10.3v-8.5h31.1l-3.5,8.5h-8.5v33.7ZM556.9,222.4l-3.2-9h-15.1l-3.2,9h-9.9l15.7-42.3h9.9l15.7,42.3h-9.9ZM546.2,191.7l-4.7,13.2h9.3l-4.7-13.2ZM601.1,181.5c-2.1,5.5-3.1,8.2-3.1,8.2-2.4-.8-5.3-1.4-8.3-1.4-7.3,0-12.8,5.5-12.8,13s5.1,13,12.2,13,10.8-4.7,10.8-9.3,0-.7,0-.9h-4.9l2.6-8h11.4c.3,1.6.6,4,.6,6.2,0,11.1-7.1,20.9-20.6,20.9s-21.1-9.5-21.1-21.8,9.2-21.8,21.9-21.8,8.6.7,11.4,2Z"/>
          <path class="cls-2" d="M202.2,165.9h28.8l-31.4,53.3h-39l26.2-44.6c3.2-5.4,9-8.7,15.3-8.7Z"/>
          <path class="cls-3" d="M208.5,183.7h39l-26.4,44.9c-3.1,5.2-8.7,8.4-14.7,8.4h-29.2l31.4-53.3Z"/>
        </g>
      </g>
    </g>
  </g>
</svg>