<svg width="449" height="206" viewBox="0 0 449 206" fill="none" xmlns="http://www.w3.org/2000/svg">
<g clip-path="url(#clip0_2_119)">
<path fill-rule="evenodd" clip-rule="evenodd" d="M124.392 123.893H116.687L106.868 97.5471V123.893H98.0437V81.6403H108.856L120.602 112.646L132.285 81.6403H143.035V123.893H134.211V97.5471L124.392 123.893ZM149.012 102.732C149.012 90.3669 158.396 80.9223 170.762 80.9223C183.129 80.9223 192.513 90.3669 192.513 102.732C192.513 115.097 183.129 124.542 170.762 124.542C158.396 124.542 149.012 115.097 149.012 102.732ZM158.085 102.732C158.085 109.94 163.554 115.718 170.762 115.718C177.909 115.718 183.378 109.94 183.378 102.732C183.378 95.5864 177.909 89.7456 170.762 89.7456C163.554 89.7456 158.085 95.5864 158.085 102.732ZM213.778 123.858H204.954V90.1184H194.7V81.6058H225.758L222.306 90.1184H213.778V123.858ZM231.283 123.858V81.6058H240.108V123.858H231.283ZM246.83 102.732C246.83 90.3669 256.214 80.9223 268.58 80.9223C280.947 80.9223 290.331 90.3669 290.331 102.732C290.331 115.097 280.947 124.542 268.58 124.542C256.214 124.542 246.83 115.097 246.83 102.732ZM255.903 102.732C255.903 109.94 261.372 115.718 268.58 115.718C275.727 115.718 281.196 109.94 281.196 102.732C281.196 95.5864 275.727 89.7456 268.58 89.7456C261.372 89.7456 255.903 95.5864 255.903 102.732ZM323.328 123.858L306.115 99.4388V123.858H297.29V86.8874L294.37 82.2272V81.6058H304.81L323.328 108.511V81.6058H332.153V123.858H323.328ZM357.549 123.858H348.725V90.1184H338.471V81.6058H369.529L366.076 90.1184H357.549V123.858ZM396.25 123.858L393.081 114.848H377.98L374.811 123.858H364.93L380.59 81.6058H390.471L406.133 123.858H396.25ZM385.562 93.1631L380.901 106.336H390.222L385.562 93.1631ZM440.44 82.9107C438.379 88.3906 437.347 91.1306 437.347 91.1306C434.922 90.2921 432.052 89.7456 429.007 89.7456C421.676 89.7456 416.205 95.2136 416.205 102.732C416.205 109.877 421.3 115.718 428.447 115.718C435.222 115.718 439.26 111.058 439.26 106.46C439.26 106.212 439.2 105.777 439.2 105.528H434.301L436.891 97.5126H448.272C448.584 99.1281 448.832 101.551 448.832 103.664C448.832 114.786 441.745 124.542 428.199 124.542C415.957 124.542 407.133 115.035 407.133 102.732C407.133 90.3669 416.329 80.9223 429.007 80.9223C433.357 80.9223 437.643 81.6679 440.44 82.9107Z" fill="#4B8B9C"/>
<path fill-rule="evenodd" clip-rule="evenodd" d="M41.5313 67.3842H70.3341L38.9543 120.706H0L26.2312 76.133C29.4213 70.7123 35.2415 67.3842 41.5313 67.3842Z" fill="#2E5A65"/>
<path fill-rule="evenodd" clip-rule="evenodd" d="M47.8841 85.1581H86.8387L60.4093 130.068C57.3419 135.28 51.7454 138.48 45.6979 138.48H16.5044L47.8841 85.1581Z" fill="#4B8B9C"/>
</g>
<defs>
<clipPath id="clip0_2_119">
<rect width="449" height="71.2317" fill="white" transform="translate(0 67.3842)"/>
</clipPath>
</defs>
</svg>
