<svg width="102" height="28" viewBox="0 0 102 28" fill="none" xmlns="http://www.w3.org/2000/svg">
<g clip-path="url(#clip0_2179_1625)">
<path d="M13.687 0H88.313C95.8691 0 102 6.2711 102 14V28H13.687C6.1309 28 0 21.7289 0 14C0 6.2711 6.1309 0 13.687 0Z" fill="#DFF43D"/>
<path d="M85.0124 22.6292C89.6606 22.6292 93.4287 18.7749 93.4287 14.0205C93.4287 9.26602 89.6606 5.41177 85.0124 5.41177C80.3643 5.41177 76.5962 9.26602 76.5962 14.0205C76.5962 18.7749 80.3643 22.6292 85.0124 22.6292Z" fill="#016052"/>
<path d="M81.8418 10.7366V17.3402C81.8418 18.1944 82.7419 18.7315 83.472 18.312L89.0178 15.0946C89.748 14.6701 89.758 13.6061 89.0379 13.1662L83.492 9.78005C82.7669 9.33504 81.8418 9.87212 81.8418 10.7366Z" fill="#DFF43D"/>
<path d="M29.1943 15.3862C29.1943 12.2762 31.3897 9.71355 34.6551 9.71355C38.3107 9.71355 40.0759 12.6547 39.4408 16.2251H32.4998C32.8699 17.3197 33.915 18.0102 35.6003 18.0102C36.7304 18.0102 37.9006 17.5908 39.0108 16.8542V19.9182C38.1507 20.6343 36.7754 21.0537 34.9452 21.0537C31.4747 21.0537 29.1943 18.7877 29.1943 15.3811V15.3862ZM35.8903 13.8312C35.8503 13.0537 35.2102 12.4859 34.3501 12.4859C33.55 12.4859 32.8499 12.8849 32.5448 13.8312H35.8903ZM34.2051 4.60358H37.9806L35.7853 7.94373H32.6048L34.2051 4.60358Z" fill="#016052"/>
<path d="M45.7217 9.71356C47.0368 9.71356 48.042 10.2404 48.6371 11.2021V6.01535H52.2526V20.798H48.6371V19.5806C48.042 20.5473 47.0368 21.0486 45.7217 21.0486C42.8862 21.0486 40.6909 18.6752 40.6909 15.376C40.6909 12.0767 42.8862 9.70333 45.7217 9.70333V9.71356ZM48.6371 15.3862C48.6371 14.0614 47.7119 13.0742 46.4818 13.0742C45.2516 13.0742 44.3465 14.0614 44.3465 15.3862C44.3465 16.711 45.2716 17.7187 46.4818 17.7187C47.6919 17.7187 48.6371 16.7315 48.6371 15.3862Z" fill="#016052"/>
<path d="M58.0335 20.8031H54.418V9.9642H58.0335V20.8031Z" fill="#016052"/>
<path d="M63.3295 12.7826C62.2843 12.7826 61.2992 13.0998 60.374 13.7698V10.6803C61.3792 10.0102 62.6944 9.71356 63.9645 9.71356C67.065 9.71356 69.2603 11.6266 69.2603 14.312V20.8031H65.6448V19.6471C65.1747 20.5064 64.2296 21.0537 63.0594 21.0537C61.1091 21.0537 59.6289 19.5857 59.6289 17.5652C59.6289 15.5448 61.1491 14.2046 63.2844 14.2046C64.1896 14.2046 65.0497 14.4553 65.6448 14.8338V14.4962C65.6448 13.4476 64.7197 12.7724 63.3244 12.7724L63.3295 12.7826ZM64.1546 18.3069C64.9547 18.3069 65.5498 17.7801 65.6548 16.9412V16.9003C65.0997 16.711 64.6296 16.6292 64.1996 16.6292C63.5195 16.6292 63.0894 16.9872 63.0894 17.468C63.0894 17.9489 63.5195 18.3069 64.1546 18.3069Z" fill="#016052"/>
<path d="M20.7832 11.1304C20.1831 10.1176 19.1779 9.59079 17.7527 9.58567C16.9126 9.58056 15.7374 10.0869 15.0373 11.0946L15.0473 9.82608L11.3568 9.8005L11.3218 15.3504L15.0123 15.376V14.9054C15.0223 13.7442 15.6124 13.0179 16.5175 13.023C17.3327 13.0281 17.8527 13.7391 17.8477 14.8593L17.8077 20.9463L21.4983 20.9719L21.5383 14.9514C21.5433 13.7903 22.1384 13.0639 23.0185 13.069C23.8586 13.0742 24.3537 13.7852 24.3487 14.9054L24.3087 20.9923L27.9992 21.0179L28.0392 14.6087C28.0592 11.4271 26.669 9.65217 24.2787 9.63682C22.8535 9.62659 21.7383 10.1381 20.7882 11.1407" fill="#016052"/>
<path d="M56.1281 4.24042C57.2483 4.24042 58.1234 5.19182 58.1234 6.26088C58.1234 7.32993 57.2533 8.24042 56.1281 8.24042C55.003 8.24042 54.1528 7.30947 54.1528 6.26088C54.1528 5.21228 54.988 4.24042 56.1281 4.24042Z" fill="#016052"/>
</g>
<defs>
<clipPath id="clip0_2179_1625">
<rect width="102" height="28" fill="white"/>
</clipPath>
</defs>
</svg>
