<?xml version="1.0" encoding="UTF-8"?>
<svg id="Calque_1" data-name="Calque 1" xmlns="http://www.w3.org/2000/svg" xmlns:xlink="http://www.w3.org/1999/xlink" viewBox="0 0 1280 1024">
  <defs>
    <clipPath id="clippath">
      <rect x="77.742904276787158" y="86.759477446350502" width="1124.8690185546875" height="831.5360107421875" style="fill: none; stroke-width: 0px;"/>
    </clipPath>
    <clipPath id="clippath-5">
      <rect x="77.742904276787158" y="86.759477446350502" width="1124.8690185546875" height="831.5360107421875" style="fill: none; stroke-width: 0px;"/>
    </clipPath>
  </defs>
  <g style="clip-path: url(#clippath);">
    <circle cx="701.916122050224658" cy="526.586788962158607" r="358.499989986419337" style="fill: none; stroke: #009640; stroke-width: 6px;"/>
  </g>
  <path d="M560.332900614677783,500.114488432678627c-4.125-6.68701171875-10.9530029296875-10.100006103515625-20.625-10.100006103515625-5.691986083984375,0-13.6610107421875,3.412994384765625-18.355987548828125,10.100006103515625v-8.39599609375h-25.035003662109375v36.701995849609375h25.035003662109375v-3.12701416015625c0-7.6829833984375,3.983978271484375-12.51898193359375,10.10198974609375-12.51898193359375,5.550994873046875,0,9.105010986328125,4.69500732421875,9.105010986328125,12.092987060546875v40.256011962890625h25.03997802734375v-39.83001708984375c0-7.6829833984375,3.980010986328125-12.51898193359375,9.956024169921875-12.51898193359375,5.68798828125,0,9.10198974609375,4.69500732421875,9.10198974609375,12.092987060546875v40.256011962890625h25.03900146484375v-42.391998291015625c0-21.05499267578125-9.531005859375-32.717010498046875-25.75-32.717010498046875-9.6719970703125,0-17.214996337890625,3.412994384765625-23.613006591796875,10.100006103515625" style="fill: #009640;"/>
  <path d="M618.977889628349658,528.420488188538002h25.32000732421875c.0040283203125-8.9630126953125,6.4019775390625-15.64599609375,14.7960205078125-15.64599609375,8.531982421875,0,14.9339599609375,6.6829833984375,14.93798828125,15.64599609375h25.32000732421875c-.00299072265625-21.910003662109375-17.49603271484375-38.406005859375-40.25799560546875-38.406005859375-22.760986328125,0-40.113037109375,16.496002197265625-40.11602783203125,38.406005859375" style="fill: #009640;"/>
  <path d="M763.019881815849658,464.977495024475502v35.136993408203125c-4.12799072265625-6.542999267578125-11.09698486328125-10.100006103515625-20.2030029296875-10.100006103515625-19.62896728515625,0-34.843994140625,16.076019287109375-34.84698486328125,38.406005859375h25.32000732421875c.0040283203125-8.9630126953125,6.4019775390625-15.64599609375,14.79302978515625-15.64599609375,8.510986328125,0,14.89495849609375,6.649993896484375,14.9329833984375,15.5780029296875h-.010986328125v25.277008056640625c0,20.9119873046875,14.3709716796875,34.566986083984375,36.7030029296875,34.566986083984375,22.19598388671875,0,36.7030029296875-13.654998779296875,36.7030029296875-34.566986083984375v-40.54302978515625h-25.0350341796875v39.54901123046875c0,7.821990966796875-4.69500732421875,12.9429931640625-11.66796875,12.9429931640625-7.114013671875,0-11.66400146484375-5.121002197265625-11.66400146484375-12.9429931640625v-24.214996337890625h.010986328125v-63.4429931640625h-25.0350341796875Z" style="fill: #009640;"/>
  <path d="M847.914901347099658,536.842485258850502c0,9.532989501953125,5.26202392578125,18.636993408203125,21.33599853515625,21.623016357421875l8.1099853515625,1.563995361328125c3.69903564453125.71099853515625,4.83502197265625,2.274993896484375,4.83502197265625,3.9849853515625,0,2.13299560546875-2.7030029296875,4.125-6.968017578125,4.125-7.54296875,0-18.63800048828125-3.41400146484375-28.02398681640625-10.100982666015625v21.3389892578125c4.1209716796875,3.128997802734375,14.2230224609375,8.819000244140625,28.02398681640625,8.819000244140625,20.90899658203125,0,32.28802490234375-8.5360107421875,32.28802490234375-23.89898681640625,0-10.811004638671875-5.12103271484375-20.342010498046875-20.0579833984375-23.61102294921875l-10.52801513671875-2.279998779296875c-2.9840087890625-.56597900390625-4.2650146484375-1.99200439453125-4.2650146484375-3.696990966796875,0-2.2760009765625,2.56298828125-3.985015869140625,6.4019775390625-3.985015869140625,6.96905517578125,0,17.35601806640625,2.561004638671875,25.0350341796875,7.540008544921875v-20.058990478515625c-5.83203125-4.121002197265625-15.22198486328125-6.82598876953125-25.32000732421875-6.82598876953125-14.6519775390625,0-30.86700439453125,5.5479736328125-30.86700439453125,25.462982177734375" style="fill: #009640;"/>
  <g style="clip-path: url(#clippath-5);">
    <path d="M362.323196024834033,851.060586760315346c38.256988525390625,64.947998046875,121.9219970703125,86.584999084472656,186.8699951171875,48.327999114990234,64.948028564453125-38.256999969482422,86.584991455078125-121.922000885009766,48.328033447265625-186.870014190673828-38.258026123046875-64.947998046875-121.922027587890625-86.584991455078125-186.870025634765625-48.327972412109375-64.947998046875,38.256988525390625-86.585006713867188,121.9219970703125-48.3280029296875,186.869987487792969" style="fill: #72ab9d; stroke-width: 0px;"/>
    <path d="M476.711501688896533,405.842485258850502c0-110.1719970703125-89.311981201171875-199.4840087890625-199.483993530273438-199.4840087890625s-199.485000610351562,89.31201171875-199.485000610351562,199.4840087890625,89.31298828125,199.4840087890625,199.485000610351562,199.4840087890625,199.483993530273438-89.31201171875,199.483993530273438-199.4840087890625" style="fill: #234f41; stroke-width: 0px;"/>
    <path d="M999.020797343193408,86.759904692444252c-94.625,0-171.3330078125,75.8809814453125-171.3330078125,169.4840087890625,0,93.60400390625,76.7080078125,169.4849853515625,171.3330078125,169.4849853515625s171.33294677734375-75.8809814453125,171.33294677734375-169.4849853515625c0-93.60302734375-76.70794677734375-169.4840087890625-171.33294677734375-169.4840087890625" style="fill: #acb8b9; stroke-width: 0px;"/>
    <path d="M1060.416122050224658,645.326799223694252c-75.37799072265625,0-136.4840087890625,61.106002807617188-136.4840087890625,136.483993530273438,0,75.379013061523438,61.10601806640625,136.485000610351562,136.4840087890625,136.485000610351562,75.3780517578125,0,136.4840087890625-61.105987548828125,136.4840087890625-136.485000610351562,0-75.37799072265625-61.10595703125-136.483993530273438-136.4840087890625-136.483993530273438" style="fill: #be937f; stroke-width: 0px;"/>
  </g>
  <g>
    <path d="M194.43359375,401.1357421875c-1.05615234375.52783203125-3.16845703125,1.05615234375-5.875,1.05615234375-6.27099609375,0-10.99072265625-3.96044921875-10.99072265625-11.2548828125,0-6.9638671875,4.7197265625-11.68359375,11.61767578125-11.68359375,2.7724609375,0,4.52197265625.59423828125,5.28076171875.990234375l-.69287109375,2.34326171875c-1.08935546875-.52783203125-2.640625-.923828125-4.48876953125-.923828125-5.21484375,0-8.68017578125,3.33349609375-8.68017578125,9.17529296875,0,5.44580078125,3.13525390625,8.9443359375,8.54833984375,8.9443359375,1.7490234375,0,3.53125-.36328125,4.6865234375-.92431640625l.59423828125,2.27734375Z" style="fill: #fff; stroke-width: 0px;"/>
    <path d="M212.0546875,393.74267578125c0,5.90771484375-4.09228515625,8.482421875-7.9541015625,8.482421875-4.3232421875,0-7.65673828125-3.16845703125-7.65673828125-8.21826171875,0-5.34716796875,3.498046875-8.482421875,7.9208984375-8.482421875,4.587890625,0,7.68994140625,3.33349609375,7.68994140625,8.21826171875ZM199.380859375,393.90771484375c0,3.49853515625,2.013671875,6.138671875,4.85205078125,6.138671875,2.7724609375,0,4.8515625-2.607421875,4.8515625-6.20458984375,0-2.70654296875-1.35302734375-6.13916015625-4.78564453125-6.13916015625s-4.91796875,3.16845703125-4.91796875,6.205078125Z" style="fill: #fff; stroke-width: 0px;"/>
    <path d="M215.71533203125,390.2109375c0-1.64990234375-.03271484375-3.00341796875-.1318359375-4.3232421875h2.57421875l.1650390625,2.64013671875h.06591796875c.79248046875-1.51806640625,2.640625-3.00341796875,5.28076171875-3.00341796875,2.21142578125,0,5.64404296875,1.3203125,5.64404296875,6.798828125v9.53857421875h-2.904296875v-9.20849609375c0-2.57421875-.95751953125-4.7197265625-3.69677734375-4.7197265625-1.9140625,0-3.3994140625,1.353515625-3.89453125,2.970703125-.1318359375.36279296875-.19775390625.85791015625-.19775390625,1.35302734375v9.6044921875h-2.90478515625v-11.65087890625Z" style="fill: #fff; stroke-width: 0px;"/>
    <path d="M234.0302734375,390.2109375c0-1.64990234375-.03271484375-3.00341796875-.1318359375-4.3232421875h2.57421875l.1650390625,2.64013671875h.06591796875c.79248046875-1.51806640625,2.640625-3.00341796875,5.28076171875-3.00341796875,2.21142578125,0,5.64404296875,1.3203125,5.64404296875,6.798828125v9.53857421875h-2.904296875v-9.20849609375c0-2.57421875-.95703125-4.7197265625-3.69677734375-4.7197265625-1.9140625,0-3.3994140625,1.353515625-3.89453125,2.970703125-.1318359375.36279296875-.19775390625.85791015625-.19775390625,1.35302734375v9.6044921875h-2.90478515625v-11.65087890625Z" style="fill: #fff; stroke-width: 0px;"/>
    <path d="M261.1904296875,401.86181640625l-.23095703125-2.01318359375h-.0986328125c-.8916015625,1.25390625-2.607421875,2.37646484375-4.884765625,2.37646484375-3.23486328125,0-4.884765625-2.27734375-4.884765625-4.587890625,0-3.861328125,3.4326171875-5.9736328125,9.6044921875-5.94091796875v-.330078125c0-1.3203125-.36328125-3.6962890625-3.630859375-3.6962890625-1.48486328125,0-3.0361328125.4619140625-4.15869140625,1.18798828125l-.65966796875-1.9140625c1.31982421875-.8583984375,3.234375-1.41943359375,5.24755859375-1.41943359375,4.884765625,0,6.07275390625,3.33349609375,6.07275390625,6.53515625v5.9736328125c0,1.38623046875.06591796875,2.7392578125.26416015625,3.82861328125h-2.640625ZM260.76171875,393.70947265625c-3.16845703125-.06591796875-6.76611328125.4951171875-6.76611328125,3.59765625,0,1.88134765625,1.25439453125,2.7724609375,2.7392578125,2.7724609375,2.07958984375,0,3.3994140625-1.3203125,3.86181640625-2.67333984375.09912109375-.29736328125.1650390625-.626953125.1650390625-.92431640625v-2.7724609375Z" style="fill: #fff; stroke-width: 0px;"/>
    <path d="M271.48583984375,381.39892578125c.03271484375.990234375-.693359375,1.7822265625-1.8486328125,1.7822265625-1.02294921875,0-1.7490234375-.7919921875-1.7490234375-1.7822265625,0-1.0234375.7587890625-1.8154296875,1.81494140625-1.8154296875,1.08935546875,0,1.78271484375.7919921875,1.78271484375,1.8154296875ZM268.2509765625,401.86181640625v-15.97412109375h2.90478515625v15.97412109375h-2.90478515625Z" style="fill: #fff; stroke-width: 0px;"/>
    <path d="M275.57666015625,398.8916015625c.8583984375.56103515625,2.37646484375,1.15478515625,3.82861328125,1.15478515625,2.1123046875,0,3.1025390625-1.05615234375,3.1025390625-2.3759765625,0-1.38623046875-.8251953125-2.1455078125-2.970703125-2.9375-2.87109375-1.0234375-4.224609375-2.607421875-4.224609375-4.52197265625,0-2.57421875,2.07958984375-4.6865234375,5.51220703125-4.6865234375,1.6171875,0,3.0361328125.4619140625,3.92724609375.990234375l-.72607421875,2.1123046875c-.626953125-.39599609375-1.7822265625-.92431640625-3.267578125-.92431640625-1.7158203125,0-2.67333984375.990234375-2.67333984375,2.17822265625,0,1.3203125.95751953125,1.91455078125,3.03662109375,2.70654296875,2.7724609375,1.05615234375,4.19140625,2.4423828125,4.19140625,4.81884765625,0,2.80517578125-2.17822265625,4.78564453125-5.9736328125,4.78564453125-1.74951171875,0-3.36669921875-.42919921875-4.48876953125-1.08935546875l.72607421875-2.2109375Z" style="fill: #fff; stroke-width: 0px;"/>
    <path d="M288.64453125,398.8916015625c.8583984375.56103515625,2.37646484375,1.15478515625,3.82861328125,1.15478515625,2.1123046875,0,3.1025390625-1.05615234375,3.1025390625-2.3759765625,0-1.38623046875-.8251953125-2.1455078125-2.970703125-2.9375-2.87109375-1.0234375-4.224609375-2.607421875-4.224609375-4.52197265625,0-2.57421875,2.07958984375-4.6865234375,5.51220703125-4.6865234375,1.6171875,0,3.0361328125.4619140625,3.92724609375.990234375l-.72607421875,2.1123046875c-.626953125-.39599609375-1.7822265625-.92431640625-3.267578125-.92431640625-1.7158203125,0-2.67333984375.990234375-2.67333984375,2.17822265625,0,1.3203125.95751953125,1.91455078125,3.03662109375,2.70654296875,2.7724609375,1.05615234375,4.19140625,2.4423828125,4.19140625,4.81884765625,0,2.80517578125-2.17822265625,4.78564453125-5.9736328125,4.78564453125-1.74951171875,0-3.36669921875-.42919921875-4.48876953125-1.08935546875l.72607421875-2.2109375Z" style="fill: #fff; stroke-width: 0px;"/>
    <path d="M310.95361328125,401.86181640625l-.23095703125-2.01318359375h-.0986328125c-.89111328125,1.25390625-2.607421875,2.37646484375-4.884765625,2.37646484375-3.23486328125,0-4.884765625-2.27734375-4.884765625-4.587890625,0-3.861328125,3.4326171875-5.9736328125,9.6044921875-5.94091796875v-.330078125c0-1.3203125-.36328125-3.6962890625-3.630859375-3.6962890625-1.48486328125,0-3.0361328125.4619140625-4.15869140625,1.18798828125l-.65966796875-1.9140625c1.31982421875-.8583984375,3.234375-1.41943359375,5.24755859375-1.41943359375,4.884765625,0,6.07275390625,3.33349609375,6.07275390625,6.53515625v5.9736328125c0,1.38623046875.06591796875,2.7392578125.26416015625,3.82861328125h-2.640625ZM310.52490234375,393.70947265625c-3.16845703125-.06591796875-6.76611328125.4951171875-6.76611328125,3.59765625,0,1.88134765625,1.25439453125,2.7724609375,2.7392578125,2.7724609375,2.07958984375,0,3.3994140625-1.3203125,3.86181640625-2.67333984375.09912109375-.29736328125.1650390625-.626953125.1650390625-.92431640625v-2.7724609375Z" style="fill: #fff; stroke-width: 0px;"/>
    <path d="M318.01416015625,390.2109375c0-1.64990234375-.03271484375-3.00341796875-.1318359375-4.3232421875h2.57421875l.1650390625,2.64013671875h.06591796875c.79248046875-1.51806640625,2.640625-3.00341796875,5.28076171875-3.00341796875,2.21142578125,0,5.64404296875,1.3203125,5.64404296875,6.798828125v9.53857421875h-2.904296875v-9.20849609375c0-2.57421875-.95751953125-4.7197265625-3.69677734375-4.7197265625-1.9140625,0-3.3994140625,1.353515625-3.89453125,2.970703125-.1318359375.36279296875-.19775390625.85791015625-.19775390625,1.35302734375v9.6044921875h-2.90478515625v-11.65087890625Z" style="fill: #fff; stroke-width: 0px;"/>
    <path d="M347.7158203125,401.267578125c-.7587890625.39599609375-2.4423828125.92431640625-4.58740234375.92431640625-4.81884765625,0-7.9541015625-3.267578125-7.9541015625-8.15234375,0-4.91748046875,3.3662109375-8.48193359375,8.5810546875-8.48193359375,1.71630859375,0,3.234375.4287109375,4.0263671875.8251953125l-.66015625,2.244140625c-.69287109375-.39599609375-1.7822265625-.75927734375-3.3662109375-.75927734375-3.66357421875,0-5.64404296875,2.70654296875-5.64404296875,6.0400390625,0,3.6962890625,2.37646484375,5.9736328125,5.544921875,5.9736328125,1.650390625,0,2.7392578125-.4287109375,3.564453125-.7919921875l.4951171875,2.17822265625Z" style="fill: #fff; stroke-width: 0px;"/>
    <path d="M352.5322265625,394.40283203125c.06640625,3.92724609375,2.57470703125,5.544921875,5.47900390625,5.544921875,2.0791015625,0,3.33349609375-.36328125,4.4228515625-.8251953125l.49462890625,2.0791015625c-1.02294921875.4619140625-2.77197265625.990234375-5.3134765625.990234375-4.91796875,0-7.85498046875-3.234375-7.85498046875-8.05322265625s2.83837890625-8.6142578125,7.49169921875-8.6142578125c5.21484375,0,6.60107421875,4.587890625,6.60107421875,7.52490234375,0,.59423828125-.06591796875,1.05615234375-.09912109375,1.353515625h-11.2216796875ZM361.0478515625,392.3232421875c.03271484375-1.84814453125-.75927734375-4.71923828125-4.02685546875-4.71923828125-2.9375,0-4.224609375,2.7060546875-4.45556640625,4.71923828125h8.482421875Z" style="fill: #fff; stroke-width: 0px;"/>
    <path d="M367.0517578125,398.8916015625c.8583984375.56103515625,2.37646484375,1.15478515625,3.82861328125,1.15478515625,2.1123046875,0,3.1025390625-1.05615234375,3.1025390625-2.3759765625,0-1.38623046875-.8251953125-2.1455078125-2.970703125-2.9375-2.87109375-1.0234375-4.224609375-2.607421875-4.224609375-4.52197265625,0-2.57421875,2.07958984375-4.6865234375,5.51220703125-4.6865234375,1.6171875,0,3.0361328125.4619140625,3.92724609375.990234375l-.72607421875,2.1123046875c-.626953125-.39599609375-1.7822265625-.92431640625-3.267578125-.92431640625-1.7158203125,0-2.67333984375.990234375-2.67333984375,2.17822265625,0,1.3203125.95751953125,1.91455078125,3.03662109375,2.70654296875,2.7724609375,1.05615234375,4.19140625,2.4423828125,4.19140625,4.81884765625,0,2.80517578125-2.17822265625,4.78564453125-5.9736328125,4.78564453125-1.74951171875,0-3.36669921875-.42919921875-4.48876953125-1.08935546875l.72607421875-2.2109375Z" style="fill: #fff; stroke-width: 0px;"/>
  </g>
  <path d="M192.97949180120122,434.894578764709877c.858123779296875.561065673828125,2.3763427734375,1.155181884765625,3.82855224609375,1.155181884765625,2.1123046875,0,3.102447509765625-1.05615234375,3.102447509765625-2.3763427734375,0-1.38623046875-.825119018554688-2.14532470703125-2.970428466796875-2.93743896484375-2.871414184570312-1.02313232421875-4.224609375-2.60736083984375-4.224609375-4.52166748046875,0-2.5743408203125,2.079299926757812-4.6866455078125,5.511795043945312-4.6866455078125,1.617233276367188,0,3.03643798828125.4620361328125,3.927566528320312.9901123046875l-.726104736328125,2.1123046875c-.627090454101562-.39605712890625-1.782257080078125-.92413330078125-3.267471313476562-.92413330078125-1.71624755859375,0-2.673385620117188.99017333984375-2.673385620117188,2.1783447265625,0,1.3201904296875.957138061523438,1.91424560546875,3.03643798828125,2.70635986328125,2.77239990234375,1.05615234375,4.191604614257812,2.4423828125,4.191604614257812,4.8187255859375,0,2.805389404296875-2.178314208984375,4.785675048828125-5.973861694335938,4.785675048828125-1.749252319335938,0-3.366485595703125-.429046630859375-4.4886474609375-1.089141845703125l.726104736328125-2.211334228515625ZM217.830062479912158,437.270921538147377c-.759109497070312.39605712890625-2.442352294921875.92413330078125-4.587661743164062.92413330078125-4.818695068359375,0-7.954147338867188-3.267486572265625-7.954147338867188-8.152191162109375,0-4.917694091796875,3.366485595703125-8.482208251953125,8.58123779296875-8.482208251953125,1.71624755859375,0,3.234466552734375.429046630859375,4.026580810546875.825103759765625l-.66009521484375,2.24432373046875c-.693099975585938-.39605712890625-1.782257080078125-.75909423828125-3.366485595703125-.75909423828125-3.663528442382812,0-5.643814086914062,2.706390380859375-5.643814086914062,6.03985595703125,0,3.696533203125,2.3763427734375,5.973876953125,5.5447998046875,5.973876953125,1.650238037109375,0,2.739395141601562-.4290771484375,3.56451416015625-.7921142578125l.495071411132812,2.178314208984375ZM224.461822123466845,417.402055571350502c.033004760742188.990142822265625-.693099975585938,1.782257080078125-1.8482666015625,1.782257080078125-1.023147583007812,0-1.749252319335938-.7921142578125-1.749252319335938-1.782257080078125,0-1.02313232421875.759109497070312-1.81524658203125,1.815261840820312-1.81524658203125,1.089157104492188,0,1.782257080078125.7921142578125,1.782257080078125,1.81524658203125ZM221.22735557073247,437.865007231506752v-15.97430419921875h2.9044189453125v15.97430419921875h-2.9044189453125ZM230.566375346123095,430.405931303772377c.066009521484375,3.927581787109375,2.574371337890625,5.5447998046875,5.478790283203125,5.5447998046875,2.079299926757812,0,3.333480834960938-.363067626953125,4.422637939453125-.825103759765625l.495071411132812,2.07928466796875c-1.023147583007812.462066650390625-2.77239990234375.990142822265625-5.313766479492188.990142822265625-4.917709350585938,0-7.855133056640625-3.234466552734375-7.855133056640625-8.05316162109375s2.838409423828125-8.614227294921875,7.492080688476562-8.614227294921875c5.214752197265625,0,6.6009521484375,4.587646484375,6.6009521484375,7.52508544921875,0,.59405517578125-.066009521484375,1.05615234375-.099014282226562,1.353179931640625h-11.22161865234375ZM239.08160361760747,428.326616118225502c.033004760742188-1.8482666015625-.759109497070312-4.71966552734375-4.026580810546875-4.71966552734375-2.937423706054688,0-4.224609375,2.706390380859375-4.455642700195312,4.71966552734375h8.482223510742188ZM245.482375712334033,426.214311430725502c0-1.65020751953125-.033004760742188-3.00341796875-.13201904296875-4.3236083984375h2.574371337890625l.165023803710938,2.640380859375h.066009521484375c.7921142578125-1.518218994140625,2.640380859375-3.00341796875,5.28076171875-3.00341796875,2.211318969726562,0,5.643814086914062,1.3201904296875,5.643814086914062,6.7989501953125v9.53839111328125h-2.9044189453125v-9.20831298828125c0-2.57440185546875-.957138061523438-4.719696044921875-3.696533203125-4.719696044921875-1.914276123046875,0-3.399490356445312,1.353179931640625-3.894561767578125,2.970428466796875-.13201904296875.363037109375-.198028564453125.858123779296875-.198028564453125,1.35321044921875v9.6043701171875h-2.9044189453125v-11.65069580078125ZM267.16363486760747,417.303056547913002v4.587646484375h4.158599853515625v2.2113037109375h-4.158599853515625v8.6142578125c0,1.98028564453125.561080932617188,3.102447509765625,2.178314208984375,3.102447509765625.759109497070312,0,1.3201904296875-.099029541015625,1.683242797851562-.198028564453125l.13201904296875,2.178314208984375c-.561080932617188.231048583984375-1.45220947265625.39605712890625-2.574371337890625.39605712890625-1.353195190429688,0-2.442352294921875-.429046630859375-3.135452270507812-1.221160888671875-.825119018554688-.858154296875-1.122161865234375-2.27734375-1.122161865234375-4.15863037109375v-8.7132568359375h-2.475357055664062v-2.2113037109375h2.475357055664062v-3.82855224609375l2.838409423828125-.75909423828125ZM277.82238730901372,417.402055571350502c.033004760742188.990142822265625-.693099975585938,1.782257080078125-1.8482666015625,1.782257080078125-1.023147583007812,0-1.749252319335938-.7921142578125-1.749252319335938-1.782257080078125,0-1.02313232421875.759109497070312-1.81524658203125,1.815261840820312-1.81524658203125,1.089157104492188,0,1.782257080078125.7921142578125,1.782257080078125,1.81524658203125ZM274.587920756279345,437.865007231506752v-15.97430419921875h2.9044189453125v15.97430419921875h-2.9044189453125ZM282.606765360771533,437.865007231506752v-13.76300048828125h-2.24432373046875v-2.2113037109375h2.24432373046875v-.858123779296875c0-4.224609375,2.475357055664062-6.964019775390625,6.964004516601562-6.964019775390625,1.485214233398438,0,3.234466552734375.46209716796875,4.059585571289062,1.05615234375l-.825119018554688,2.211334228515625c-.693099975585938-.495086669921875-1.947280883789062-.92413330078125-3.366485595703125-.92413330078125-3.069442749023438,0-3.9605712890625,2.145294189453125-3.9605712890625,4.686676025390625v.7921142578125h9.274337768554688v15.97430419921875h-2.871414184570312v-13.76300048828125h-6.402923583984375v13.76300048828125h-2.871414184570312ZM310.460113139091845,435.389665434631752h-.066009521484375c-.858123779296875,1.584228515625-2.640380859375,2.83837890625-5.214752197265625,2.83837890625-3.729537963867188,0-6.765975952148438-3.23443603515625-6.765975952148438-8.086151123046875,0-5.973846435546875,3.861557006835938-8.614227294921875,7.228042602539062-8.614227294921875,2.475357055664062,0,4.125595092773438,1.221160888671875,4.917709350585938,2.77239990234375h.066009521484375l.099014282226562-2.40936279296875h2.739395141601562c-.066009521484375,1.35321044921875-.099014282226562,2.7393798828125-.099014282226562,4.3896484375v18.119598388671875h-2.9044189453125v-9.010284423828125ZM310.460113139091845,428.359636137756752c0-.39605712890625-.033004760742188-.858123779296875-.13201904296875-1.22119140625-.429061889648438-1.7822265625-1.98028564453125-3.30047607421875-4.158599853515625-3.30047607421875-3.003433227539062,0-4.818695068359375,2.5413818359375-4.818695068359375,6.138916015625,0,3.16845703125,1.518218994140625,5.94085693359375,4.719680786132812,5.94085693359375,1.881271362304688,0,3.498504638671875-1.155181884765625,4.158599853515625-3.16845703125.13201904296875-.39605712890625.231033325195312-.9571533203125.231033325195312-1.38623046875v-3.00341796875ZM331.514602274834033,433.508378813538002c0,1.650238037109375.033004760742188,3.102447509765625.13201904296875,4.35662841796875h-2.574371337890625l-.165023803710938-2.60736083984375h-.066009521484375c-.759109497070312,1.28717041015625-2.442352294921875,2.97039794921875-5.28076171875,2.97039794921875-2.50836181640625,0-5.511795043945312-1.38616943359375-5.511795043945312-6.99700927734375v-9.34033203125h2.9044189453125v8.84527587890625c0,3.03643798828125.92413330078125,5.082733154296875,3.56451416015625,5.082733154296875,1.947280883789062,0,3.30047607421875-1.353179931640625,3.82855224609375-2.640380859375.165023803710938-.429046630859375.2640380859375-.957122802734375.2640380859375-1.485198974609375v-9.80242919921875h2.9044189453125v11.61767578125ZM337.947738261162158,430.405931303772377c.066009521484375,3.927581787109375,2.574371337890625,5.5447998046875,5.478790283203125,5.5447998046875,2.079315185546875,0,3.333465576171875-.363067626953125,4.422637939453125-.825103759765625l.49505615234375,2.07928466796875c-1.02313232421875.462066650390625-2.77239990234375.990142822265625-5.313751220703125.990142822265625-4.917694091796875,0-7.855133056640625-3.234466552734375-7.855133056640625-8.05316162109375s2.838409423828125-8.614227294921875,7.4920654296875-8.614227294921875c5.21478271484375,0,6.6009521484375,4.587646484375,6.6009521484375,7.52508544921875,0,.59405517578125-.06597900390625,1.05615234375-.0989990234375,1.353179931640625h-11.22161865234375ZM346.462966532646533,428.326616118225502c.032989501953125-1.8482666015625-.759124755859375-4.71966552734375-4.026580810546875-4.71966552734375-2.93743896484375,0-4.224609375,2.706390380859375-4.45562744140625,4.71966552734375h8.482208251953125ZM352.467696757255908,434.894578764709877c.85809326171875.561065673828125,2.3763427734375,1.155181884765625,3.82855224609375,1.155181884765625,2.1123046875,0,3.1024169921875-1.05615234375,3.1024169921875-2.3763427734375,0-1.38623046875-.825103759765625-2.14532470703125-2.97039794921875-2.93743896484375-2.871429443359375-1.02313232421875-4.224609375-2.60736083984375-4.224609375-4.52166748046875,0-2.5743408203125,2.07928466796875-4.6866455078125,5.51177978515625-4.6866455078125,1.61724853515625,0,3.03643798828125.4620361328125,3.92755126953125.9901123046875l-.72607421875,2.1123046875c-.627105712890625-.39605712890625-1.78228759765625-.92413330078125-3.267486572265625-.92413330078125-1.71624755859375,0-2.673370361328125.99017333984375-2.673370361328125,2.1783447265625,0,1.3201904296875.957122802734375,1.91424560546875,3.03643798828125,2.70635986328125,2.77239990234375,1.05615234375,4.19158935546875,2.4423828125,4.19158935546875,4.8187255859375,0,2.805389404296875-2.178314208984375,4.785675048828125-5.973876953125,4.785675048828125-1.749237060546875,0-3.366455078125-.429046630859375-4.4886474609375-1.089141845703125l.72613525390625-2.211334228515625Z" style="fill: #fff; stroke-width: 0px;"/>
  <g>
    <path d="M421.73681640625,780.96484375h-8.64697265625v8.0205078125h9.63720703125v2.4091796875h-12.5087890625v-22.2451171875h12.013671875v2.4091796875h-9.14208984375v7.0302734375h8.64697265625v2.3759765625ZM421.17578125,764.099609375l-4.19140625,3.861328125h-2.37646484375l3.0693359375-3.861328125h3.49853515625Z" style="fill: #fff; stroke-width: 0px;"/>
    <path d="M427.279296875,775.419921875l3.13525390625,8.9775390625c.52783203125,1.4521484375.95703125,2.7724609375,1.287109375,4.0927734375h.09912109375c.36279296875-1.3203125.8251953125-2.640625,1.35302734375-4.0927734375l3.1025390625-8.9775390625h3.03662109375l-6.27099609375,15.974609375h-2.7724609375l-6.07275390625-15.974609375h3.1025390625Z" style="fill: #fff; stroke-width: 0px;"/>
    <path d="M450.775390625,791.39453125l-.23095703125-2.013671875h-.0986328125c-.8916015625,1.2548828125-2.607421875,2.376953125-4.884765625,2.376953125-3.23486328125,0-4.884765625-2.27734375-4.884765625-4.587890625,0-3.861328125,3.4326171875-5.9736328125,9.6044921875-5.9404296875v-.330078125c0-1.3203125-.36328125-3.697265625-3.630859375-3.697265625-1.48486328125,0-3.0361328125.462890625-4.15869140625,1.1884765625l-.65966796875-1.9140625c1.31982421875-.8583984375,3.234375-1.4189453125,5.24755859375-1.4189453125,4.884765625,0,6.07275390625,3.3330078125,6.07275390625,6.5341796875v5.974609375c0,1.3857421875.06591796875,2.7392578125.26416015625,3.828125h-2.640625ZM450.3466796875,783.2421875c-3.16845703125-.0654296875-6.76611328125.4951171875-6.76611328125,3.59765625,0,1.880859375,1.25439453125,2.7724609375,2.7392578125,2.7724609375,2.07958984375,0,3.3994140625-1.3203125,3.86181640625-2.673828125.09912109375-.296875.1650390625-.626953125.1650390625-.923828125v-2.7724609375Z" style="fill: #fff; stroke-width: 0px;"/>
    <path d="M457.83642578125,767.9609375h2.90478515625v23.43359375h-2.90478515625v-23.43359375Z" style="fill: #fff; stroke-width: 0px;"/>
    <path d="M478.9912109375,787.0380859375c0,1.650390625.03271484375,3.1025390625.1318359375,4.3564453125h-2.57421875l-.1650390625-2.607421875h-.06591796875c-.75927734375,1.287109375-2.4423828125,2.970703125-5.28076171875,2.970703125-2.50830078125,0-5.51171875-1.38671875-5.51171875-6.9970703125v-9.3408203125h2.904296875v8.845703125c0,3.0361328125.923828125,5.0830078125,3.564453125,5.0830078125,1.947265625,0,3.30029296875-1.353515625,3.82861328125-2.640625.1650390625-.4296875.26416015625-.95703125.26416015625-1.4853515625v-9.802734375h2.904296875v11.6181640625Z" style="fill: #fff; stroke-width: 0px;"/>
    <path d="M492.65185546875,791.39453125l-.23095703125-2.013671875h-.0986328125c-.89111328125,1.2548828125-2.607421875,2.376953125-4.884765625,2.376953125-3.23486328125,0-4.884765625-2.27734375-4.884765625-4.587890625,0-3.861328125,3.4326171875-5.9736328125,9.6044921875-5.9404296875v-.330078125c0-1.3203125-.36328125-3.697265625-3.630859375-3.697265625-1.48486328125,0-3.0361328125.462890625-4.15869140625,1.1884765625l-.65966796875-1.9140625c1.31982421875-.8583984375,3.234375-1.4189453125,5.24755859375-1.4189453125,4.884765625,0,6.07275390625,3.3330078125,6.07275390625,6.5341796875v5.974609375c0,1.3857421875.06591796875,2.7392578125.26416015625,3.828125h-2.640625ZM492.22314453125,783.2421875c-3.16845703125-.0654296875-6.76611328125.4951171875-6.76611328125,3.59765625,0,1.880859375,1.25439453125,2.7724609375,2.7392578125,2.7724609375,2.07958984375,0,3.3994140625-1.3203125,3.86181640625-2.673828125.09912109375-.296875.1650390625-.626953125.1650390625-.923828125v-2.7724609375Z" style="fill: #fff; stroke-width: 0px;"/>
    <path d="M503.1123046875,770.8330078125v4.5869140625h4.15869140625v2.2119140625h-4.15869140625v8.6142578125c0,1.9794921875.56103515625,3.1025390625,2.17822265625,3.1025390625.75927734375,0,1.3203125-.099609375,1.68359375-.1982421875l.1318359375,2.177734375c-.56103515625.2314453125-1.4521484375.396484375-2.57421875.396484375-1.353515625,0-2.4423828125-.4287109375-3.1357421875-1.2216796875-.82470703125-.857421875-1.1220703125-2.27734375-1.1220703125-4.158203125v-8.712890625h-2.47509765625v-2.2119140625h2.47509765625v-3.828125l2.83837890625-.7587890625Z" style="fill: #fff; stroke-width: 0px;"/>
    <path d="M513.771484375,770.931640625c.03271484375.990234375-.693359375,1.7822265625-1.8486328125,1.7822265625-1.02294921875,0-1.7490234375-.7919921875-1.7490234375-1.7822265625,0-1.0234375.7587890625-1.8154296875,1.81494140625-1.8154296875,1.08935546875,0,1.78271484375.7919921875,1.78271484375,1.8154296875ZM510.53662109375,791.39453125v-15.974609375h2.90478515625v15.974609375h-2.90478515625Z" style="fill: #fff; stroke-width: 0px;"/>
    <path d="M532.71435546875,783.275390625c0,5.908203125-4.09228515625,8.482421875-7.9541015625,8.482421875-4.3232421875,0-7.65673828125-3.1689453125-7.65673828125-8.21875,0-5.3466796875,3.49853515625-8.4814453125,7.9208984375-8.4814453125,4.587890625,0,7.68994140625,3.3330078125,7.68994140625,8.2177734375ZM520.04052734375,783.4404296875c0,3.498046875,2.013671875,6.138671875,4.85205078125,6.138671875,2.7724609375,0,4.8515625-2.607421875,4.8515625-6.205078125,0-2.7060546875-1.35302734375-6.138671875-4.78564453125-6.138671875s-4.91796875,3.1689453125-4.91796875,6.205078125Z" style="fill: #fff; stroke-width: 0px;"/>
    <path d="M536.375,779.744140625c0-1.650390625-.03271484375-3.00390625-.1318359375-4.32421875h2.57421875l.1650390625,2.640625h.06591796875c.79248046875-1.5185546875,2.640625-3.0029296875,5.28076171875-3.0029296875,2.21142578125,0,5.64404296875,1.3193359375,5.64404296875,6.798828125v9.5380859375h-2.904296875v-9.2080078125c0-2.57421875-.95703125-4.7197265625-3.69677734375-4.7197265625-1.9140625,0-3.3994140625,1.3525390625-3.89453125,2.9697265625-.1318359375.36328125-.19775390625.8583984375-.19775390625,1.353515625v9.6044921875h-2.90478515625v-11.650390625Z" style="fill: #fff; stroke-width: 0px;"/>
  </g>
  <g>
    <path d="M930.8291015625,238.4111328125h-8.6474609375v8.0205078125h9.6376953125v2.4091796875h-12.5087890625v-22.2451171875h12.013671875v2.4091796875h-9.142578125v7.0302734375h8.6474609375v2.3759765625Z" style="fill: #fff; stroke-width: 0px;"/>
    <path d="M936.7998046875,232.86669921875l2.27734375,3.43212890625c.59375.89111328125,1.0888671875,1.71630859375,1.6171875,2.607421875h.0986328125c.5283203125-.95703125,1.056640625-1.7822265625,1.5849609375-2.64013671875l2.244140625-3.3994140625h3.134765625l-5.4453125,7.72314453125,5.6103515625,8.2509765625h-3.2998046875l-2.34375-3.59765625c-.626953125-.923828125-1.1552734375-1.81494140625-1.7158203125-2.7724609375h-.06640625c-.5283203125.95751953125-1.0888671875,1.8154296875-1.68359375,2.7724609375l-2.3095703125,3.59765625h-3.2021484375l5.6767578125-8.15234375-5.412109375-7.82177734375h3.234375Z" style="fill: #fff; stroke-width: 0px;"/>
    <path d="M950.7255859375,238.0810546875c0-2.0458984375-.0654296875-3.6962890625-.1318359375-5.21435546875h2.607421875l.1318359375,2.7392578125h.06640625c1.1875-1.947265625,3.0693359375-3.1025390625,5.6767578125-3.1025390625,3.861328125,0,6.765625,3.267578125,6.765625,8.119140625,0,5.74267578125-3.498046875,8.58154296875-7.2607421875,8.58154296875-2.1123046875,0-3.9609375-.92431640625-4.91796875-2.5087890625h-.06640625v8.6806640625h-2.87109375v-17.294921875ZM953.5966796875,242.3388671875c0,.42919921875.06640625.8251953125.1328125,1.18798828125.52734375,2.013671875,2.27734375,3.39990234375,4.3564453125,3.39990234375,3.0693359375,0,4.8515625-2.5087890625,4.8515625-6.171875,0-3.20166015625-1.68359375-5.94091796875-4.7529296875-5.94091796875-1.98046875,0-3.828125,1.4189453125-4.3896484375,3.59716796875-.0986328125.36328125-.1982421875.79248046875-.1982421875,1.1884765625v2.7392578125Z" style="fill: #fff; stroke-width: 0px;"/>
    <path d="M971.119140625,241.3818359375c.06640625,3.92724609375,2.57421875,5.544921875,5.4794921875,5.544921875,2.0791015625,0,3.3330078125-.36328125,4.421875-.8251953125l.4951171875,2.0791015625c-1.0224609375.4619140625-2.7724609375.990234375-5.3134765625.990234375-4.91796875,0-7.85546875-3.234375-7.85546875-8.05322265625s2.8388671875-8.6142578125,7.4921875-8.6142578125c5.21484375,0,6.6015625,4.587890625,6.6015625,7.52490234375,0,.59423828125-.06640625,1.05615234375-.099609375,1.353515625h-11.2216796875ZM979.634765625,239.30224609375c.033203125-1.84814453125-.759765625-4.7197265625-4.0263671875-4.7197265625-2.9375,0-4.224609375,2.70654296875-4.4560546875,4.7197265625h8.482421875ZM980.328125,225.96875l-4.02734375,4.71923828125h-2.0791015625l2.904296875-4.71923828125h3.2021484375Z" style="fill: #fff; stroke-width: 0px;"/>
    <path d="M986.03515625,237.85009765625c0-1.88134765625-.033203125-3.49853515625-.1318359375-4.9833984375h2.541015625l.099609375,3.13525390625h.1318359375c.7255859375-2.1455078125,2.4755859375-3.49853515625,4.4228515625-3.49853515625.330078125,0,.560546875.033203125.8251953125.09912109375v2.7392578125c-.2978515625-.06591796875-.5947265625-.09912109375-.990234375-.09912109375-2.046875,0-3.4990234375,1.55126953125-3.89453125,3.7294921875-.06640625.396484375-.1318359375.8583984375-.1318359375,1.353515625v8.51513671875h-2.8720703125v-10.99072265625Z" style="fill: #fff; stroke-width: 0px;"/>
    <path d="M1000.1591796875,228.3779296875c.033203125.990234375-.6923828125,1.7822265625-1.84765625,1.7822265625-1.0234375,0-1.75-.7919921875-1.75-1.7822265625,0-1.0234375.759765625-1.8154296875,1.8154296875-1.8154296875,1.08984375,0,1.7822265625.7919921875,1.7822265625,1.8154296875ZM996.9248046875,248.8408203125v-15.97412109375h2.904296875v15.97412109375h-2.904296875Z" style="fill: #fff; stroke-width: 0px;"/>
    <path d="M1006.263671875,241.3818359375c.06640625,3.92724609375,2.57421875,5.544921875,5.4794921875,5.544921875,2.0791015625,0,3.3330078125-.36328125,4.421875-.8251953125l.4951171875,2.0791015625c-1.0224609375.4619140625-2.7724609375.990234375-5.3134765625.990234375-4.91796875,0-7.85546875-3.234375-7.85546875-8.05322265625s2.8388671875-8.6142578125,7.4921875-8.6142578125c5.21484375,0,6.6015625,4.587890625,6.6015625,7.52490234375,0,.59423828125-.06640625,1.05615234375-.099609375,1.353515625h-11.2216796875ZM1014.779296875,239.30224609375c.033203125-1.84814453125-.759765625-4.7197265625-4.0263671875-4.7197265625-2.9375,0-4.224609375,2.70654296875-4.4560546875,4.7197265625h8.482421875Z" style="fill: #fff; stroke-width: 0px;"/>
    <path d="M1021.1787109375,237.18994140625c0-1.64990234375-.033203125-3.00341796875-.1318359375-4.3232421875h2.57421875l.1650390625,2.64013671875h.06640625c.7919921875-1.51806640625,2.6396484375-3.00341796875,5.2802734375-3.00341796875,2.2119140625,0,5.6435546875,1.3203125,5.6435546875,6.798828125v9.53857421875h-2.904296875v-9.20849609375c0-2.57421875-.95703125-4.7197265625-3.6962890625-4.7197265625-1.9140625,0-3.3994140625,1.353515625-3.89453125,2.970703125-.1318359375.36279296875-.1982421875.85791015625-.1982421875,1.35302734375v9.6044921875h-2.904296875v-11.65087890625Z" style="fill: #fff; stroke-width: 0px;"/>
    <path d="M1050.880859375,248.24658203125c-.7587890625.39599609375-2.4423828125.92431640625-4.587890625.92431640625-4.818359375,0-7.9541015625-3.267578125-7.9541015625-8.15234375,0-4.91748046875,3.3671875-8.48193359375,8.5810546875-8.48193359375,1.716796875,0,3.2353515625.4287109375,4.02734375.8251953125l-.66015625,2.244140625c-.693359375-.39599609375-1.7822265625-.75927734375-3.3671875-.75927734375-3.6630859375,0-5.6435546875,2.70654296875-5.6435546875,6.0400390625,0,3.6962890625,2.376953125,5.9736328125,5.544921875,5.9736328125,1.650390625,0,2.7392578125-.4287109375,3.564453125-.7919921875l.4951171875,2.17822265625Z" style="fill: #fff; stroke-width: 0px;"/>
    <path d="M1055.697265625,241.3818359375c.06640625,3.92724609375,2.57421875,5.544921875,5.4794921875,5.544921875,2.0791015625,0,3.3330078125-.36328125,4.421875-.8251953125l.4951171875,2.0791015625c-1.0224609375.4619140625-2.7724609375.990234375-5.3134765625.990234375-4.91796875,0-7.85546875-3.234375-7.85546875-8.05322265625s2.8388671875-8.6142578125,7.4921875-8.6142578125c5.21484375,0,6.6015625,4.587890625,6.6015625,7.52490234375,0,.59423828125-.06640625,1.05615234375-.099609375,1.353515625h-11.2216796875ZM1064.212890625,239.30224609375c.033203125-1.84814453125-.759765625-4.7197265625-4.0263671875-4.7197265625-2.9375,0-4.224609375,2.70654296875-4.4560546875,4.7197265625h8.482421875Z" style="fill: #fff; stroke-width: 0px;"/>
    <path d="M1070.216796875,245.87060546875c.857421875.56103515625,2.3759765625,1.15478515625,3.828125,1.15478515625,2.1123046875,0,3.1025390625-1.05615234375,3.1025390625-2.3759765625,0-1.38623046875-.8251953125-2.1455078125-2.970703125-2.9375-2.87109375-1.0234375-4.224609375-2.607421875-4.224609375-4.52197265625,0-2.57421875,2.0791015625-4.6865234375,5.51171875-4.6865234375,1.6171875,0,3.037109375.4619140625,3.927734375.990234375l-.7255859375,2.1123046875c-.6279296875-.39599609375-1.7822265625-.92431640625-3.267578125-.92431640625-1.716796875,0-2.673828125.990234375-2.673828125,2.17822265625,0,1.3203125.95703125,1.91455078125,3.0361328125,2.70654296875,2.7724609375,1.05615234375,4.1923828125,2.4423828125,4.1923828125,4.81884765625,0,2.80517578125-2.1787109375,4.78564453125-5.974609375,4.78564453125-1.7490234375,0-3.3662109375-.42919921875-4.48828125-1.08935546875l.7265625-2.2109375Z" style="fill: #fff; stroke-width: 0px;"/>
  </g>
  <g>
    <path d="M948.8134765625,261.41015625v19.30810546875c0,1.4189453125.033203125,3.0361328125.1318359375,4.12548828125h-2.6064453125l-.1328125-2.7724609375h-.0654296875c-.8916015625,1.7822265625-2.8388671875,3.1357421875-5.4462890625,3.1357421875-3.861328125,0-6.83203125-3.267578125-6.83203125-8.11962890625-.033203125-5.3134765625,3.267578125-8.5810546875,7.162109375-8.5810546875,2.4423828125,0,4.0927734375,1.1552734375,4.8193359375,2.4423828125h.0654296875v-9.53857421875h2.904296875ZM945.9091796875,275.37158203125c0-.36328125-.033203125-.8583984375-.1318359375-1.22119140625-.4287109375-1.8486328125-2.013671875-3.36669921875-4.19140625-3.36669921875-3.00390625,0-4.7861328125,2.640625-4.7861328125,6.171875,0,3.234375,1.583984375,5.90771484375,4.7197265625,5.90771484375,1.947265625,0,3.7294921875-1.287109375,4.2578125-3.46533203125.0986328125-.39599609375.1318359375-.7919921875.1318359375-1.25439453125v-2.77197265625Z" style="fill: #fff; stroke-width: 0px;"/>
    <path d="M955.2470703125,277.384765625c.06640625,3.92724609375,2.57421875,5.544921875,5.478515625,5.544921875,2.080078125,0,3.333984375-.36328125,4.4228515625-.8251953125l.4951171875,2.0791015625c-1.0224609375.4619140625-2.7724609375.990234375-5.3134765625.990234375-4.91796875,0-7.85546875-3.234375-7.85546875-8.05322265625s2.8388671875-8.6142578125,7.4921875-8.6142578125c5.21484375,0,6.6015625,4.587890625,6.6015625,7.52490234375,0,.59423828125-.06640625,1.05615234375-.099609375,1.353515625h-11.2216796875ZM963.7626953125,275.30517578125c.033203125-1.84814453125-.759765625-4.7197265625-4.0263671875-4.7197265625-2.9375,0-4.224609375,2.70654296875-4.4560546875,4.7197265625h8.482421875Z" style="fill: #fff; stroke-width: 0px;"/>
    <path d="M980.6572265625,264.28173828125v4.587890625h4.158203125v2.2109375h-4.158203125v8.6142578125c0,1.98046875.560546875,3.1025390625,2.177734375,3.1025390625.759765625,0,1.3203125-.09912109375,1.68359375-.19775390625l.1318359375,2.17822265625c-.560546875.23095703125-1.4521484375.39599609375-2.57421875.39599609375-1.353515625,0-2.4423828125-.42919921875-3.1357421875-1.22119140625-.8251953125-.85791015625-1.1220703125-2.27734375-1.1220703125-4.15869140625v-8.71337890625h-2.4755859375v-2.2109375h2.4755859375v-3.82861328125l2.8388671875-.75927734375Z" style="fill: #fff; stroke-width: 0px;"/>
    <path d="M989.5,277.384765625c.06640625,3.92724609375,2.57421875,5.544921875,5.4794921875,5.544921875,2.0791015625,0,3.3330078125-.36328125,4.421875-.8251953125l.4951171875,2.0791015625c-1.0224609375.4619140625-2.7724609375.990234375-5.3134765625.990234375-4.91796875,0-7.85546875-3.234375-7.85546875-8.05322265625s2.8388671875-8.6142578125,7.4921875-8.6142578125c5.21484375,0,6.6015625,4.587890625,6.6015625,7.52490234375,0,.59423828125-.06640625,1.05615234375-.099609375,1.353515625h-11.2216796875ZM998.015625,275.30517578125c.033203125-1.84814453125-.759765625-4.7197265625-4.0263671875-4.7197265625-2.9375,0-4.224609375,2.70654296875-4.4560546875,4.7197265625h8.482421875Z" style="fill: #fff; stroke-width: 0px;"/>
    <path d="M1004.4150390625,273.85302734375c0-1.88134765625-.033203125-3.49853515625-.1318359375-4.9833984375h2.541015625l.099609375,3.13525390625h.1318359375c.7255859375-2.1455078125,2.4755859375-3.49853515625,4.4228515625-3.49853515625.330078125,0,.560546875.033203125.8251953125.09912109375v2.7392578125c-.2978515625-.06591796875-.5947265625-.09912109375-.990234375-.09912109375-2.046875,0-3.4990234375,1.55126953125-3.89453125,3.7294921875-.06640625.396484375-.1328125.8583984375-.1328125,1.353515625v8.51513671875h-2.87109375v-10.99072265625Z" style="fill: #fff; stroke-width: 0px;"/>
    <path d="M1015.3056640625,273.85302734375c0-1.88134765625-.033203125-3.49853515625-.1318359375-4.9833984375h2.541015625l.099609375,3.13525390625h.1318359375c.7255859375-2.1455078125,2.4755859375-3.49853515625,4.4228515625-3.49853515625.330078125,0,.560546875.033203125.8251953125.09912109375v2.7392578125c-.2978515625-.06591796875-.5947265625-.09912109375-.990234375-.09912109375-2.046875,0-3.4990234375,1.55126953125-3.89453125,3.7294921875-.06640625.396484375-.1328125.8583984375-.1328125,1.353515625v8.51513671875h-2.87109375v-10.99072265625Z" style="fill: #fff; stroke-width: 0px;"/>
    <path d="M1034.7763671875,284.84375l-.2314453125-2.01318359375h-.0986328125c-.8916015625,1.25390625-2.607421875,2.37646484375-4.884765625,2.37646484375-3.234375,0-4.884765625-2.27734375-4.884765625-4.587890625,0-3.861328125,3.4326171875-5.9736328125,9.6044921875-5.94091796875v-.330078125c0-1.3203125-.36328125-3.6962890625-3.630859375-3.6962890625-1.4853515625,0-3.0361328125.4619140625-4.158203125,1.18798828125l-.66015625-1.9140625c1.3203125-.8583984375,3.234375-1.41943359375,5.2470703125-1.41943359375,4.884765625,0,6.0732421875,3.33349609375,6.0732421875,6.53515625v5.9736328125c0,1.38623046875.06640625,2.7392578125.263671875,3.82861328125h-2.6396484375ZM1034.3466796875,276.69140625c-3.16796875-.06591796875-6.765625.4951171875-6.765625,3.59765625,0,1.88134765625,1.25390625,2.7724609375,2.7392578125,2.7724609375,2.0791015625,0,3.3994140625-1.3203125,3.861328125-2.67333984375.099609375-.296875.1650390625-.626953125.1650390625-.92431640625v-2.7724609375Z" style="fill: #fff; stroke-width: 0px;"/>
    <path d="M1045.0712890625,264.380859375c.033203125.990234375-.6923828125,1.7822265625-1.84765625,1.7822265625-1.0234375,0-1.75-.7919921875-1.75-1.7822265625,0-1.0234375.759765625-1.8154296875,1.8154296875-1.8154296875,1.08984375,0,1.7822265625.7919921875,1.7822265625,1.8154296875ZM1041.8369140625,284.84375v-15.97412109375h2.904296875v15.97412109375h-2.904296875Z" style="fill: #fff; stroke-width: 0px;"/>
    <path d="M1049.55859375,273.19287109375c0-1.64990234375-.033203125-3.00341796875-.1318359375-4.3232421875h2.57421875l.1650390625,2.64013671875h.06640625c.7919921875-1.51806640625,2.6396484375-3.00341796875,5.2802734375-3.00341796875,2.2119140625,0,5.6435546875,1.3203125,5.6435546875,6.798828125v9.53857421875h-2.904296875v-9.20849609375c0-2.57421875-.95703125-4.7197265625-3.6962890625-4.7197265625-1.9140625,0-3.3994140625,1.353515625-3.89453125,2.970703125-.1318359375.36279296875-.1982421875.85791015625-.1982421875,1.35302734375v9.6044921875h-2.904296875v-11.65087890625Z" style="fill: #fff; stroke-width: 0px;"/>
  </g>
  <g>
    <path d="M1009.2021484375,767.40234375l-2.3095703125,6.9970703125h-2.970703125l7.5576171875-22.2451171875h3.4658203125l7.5908203125,22.2451171875h-3.0693359375l-2.3759765625-6.9970703125h-7.888671875ZM1016.4970703125,765.158203125l-2.1787109375-6.4033203125c-.4951171875-1.4521484375-.8251953125-2.7724609375-1.1552734375-4.0595703125h-.06640625c-.330078125,1.3203125-.6923828125,2.673828125-1.1220703125,4.0263671875l-2.177734375,6.4365234375h6.7001953125Z" style="fill: #fff; stroke-width: 0px;"/>
    <path d="M1025.6357421875,762.7490234375c0-1.650390625-.033203125-3.00390625-.1318359375-4.32421875h2.57421875l.1650390625,2.640625h.06640625c.7919921875-1.5185546875,2.6396484375-3.0029296875,5.2802734375-3.0029296875,2.2119140625,0,5.6435546875,1.3193359375,5.6435546875,6.798828125v9.5380859375h-2.904296875v-9.2080078125c0-2.57421875-.95703125-4.7197265625-3.6962890625-4.7197265625-1.9140625,0-3.3994140625,1.3525390625-3.89453125,2.9697265625-.1318359375.36328125-.1982421875.8583984375-.1982421875,1.353515625v9.6044921875h-2.904296875v-11.650390625Z" style="fill: #fff; stroke-width: 0px;"/>
    <path d="M1055.3369140625,773.8056640625c-.7587890625.3955078125-2.4423828125.923828125-4.587890625.923828125-4.818359375,0-7.9541015625-3.267578125-7.9541015625-8.15234375,0-4.91796875,3.3671875-8.482421875,8.5810546875-8.482421875,1.716796875,0,3.2353515625.4296875,4.02734375.8251953125l-.66015625,2.244140625c-.693359375-.3955078125-1.7822265625-.7587890625-3.3671875-.7587890625-3.6630859375,0-5.6435546875,2.7060546875-5.6435546875,6.0400390625,0,3.6962890625,2.376953125,5.9736328125,5.544921875,5.9736328125,1.650390625,0,2.7392578125-.4287109375,3.564453125-.7919921875l.4951171875,2.1787109375Z" style="fill: #fff; stroke-width: 0px;"/>
    <path d="M1058.734375,763.4091796875c0-1.8818359375-.033203125-3.4990234375-.1318359375-4.984375h2.541015625l.099609375,3.1357421875h.1318359375c.7255859375-2.1455078125,2.4755859375-3.498046875,4.4228515625-3.498046875.330078125,0,.560546875.0322265625.8251953125.0986328125v2.7392578125c-.2978515625-.06640625-.5947265625-.0986328125-.990234375-.0986328125-2.046875,0-3.4990234375,1.55078125-3.89453125,3.7294921875-.06640625.3955078125-.1318359375.857421875-.1318359375,1.3525390625v8.515625h-2.8720703125v-10.990234375Z" style="fill: #fff; stroke-width: 0px;"/>
    <path d="M1078.2060546875,774.3994140625l-.2314453125-2.013671875h-.0986328125c-.8916015625,1.2548828125-2.607421875,2.376953125-4.884765625,2.376953125-3.234375,0-4.884765625-2.27734375-4.884765625-4.587890625,0-3.861328125,3.4326171875-5.9736328125,9.6044921875-5.9404296875v-.330078125c0-1.3203125-.36328125-3.697265625-3.630859375-3.697265625-1.4853515625,0-3.0361328125.4619140625-4.158203125,1.1884765625l-.66015625-1.9140625c1.3203125-.8583984375,3.234375-1.4189453125,5.2470703125-1.4189453125,4.884765625,0,6.0732421875,3.3330078125,6.0732421875,6.5341796875v5.974609375c0,1.3857421875.06640625,2.7392578125.263671875,3.828125h-2.6396484375ZM1077.7763671875,766.2470703125c-3.16796875-.0654296875-6.765625.4951171875-6.765625,3.59765625,0,1.880859375,1.25390625,2.7724609375,2.7392578125,2.7724609375,2.0791015625,0,3.3994140625-1.3203125,3.861328125-2.673828125.099609375-.296875.1650390625-.626953125.1650390625-.923828125v-2.7724609375Z" style="fill: #fff; stroke-width: 0px;"/>
    <path d="M1099.029296875,758.4248046875c-.0654296875,1.1552734375-.1318359375,2.4423828125-.1318359375,4.3896484375v9.2744140625c0,3.6640625-.7255859375,5.908203125-2.27734375,7.2939453125-1.55078125,1.4521484375-3.794921875,1.9150390625-5.80859375,1.9150390625-1.9140625,0-4.0263671875-.462890625-5.3134765625-1.3203125l.7255859375-2.2119140625c1.056640625.66015625,2.70703125,1.2548828125,4.6865234375,1.2548828125,2.970703125,0,5.1494140625-1.5517578125,5.1494140625-5.578125v-1.7822265625h-.06640625c-.890625,1.4853515625-2.607421875,2.6728515625-5.0830078125,2.6728515625-3.9599609375,0-6.798828125-3.3662109375-6.798828125-7.7890625,0-5.412109375,3.5322265625-8.4814453125,7.1953125-8.4814453125,2.7724609375,0,4.291015625,1.4521484375,4.9833984375,2.771484375h.06640625l.1318359375-2.4091796875h2.541015625ZM1096.0263671875,764.7294921875c0-.4951171875-.033203125-.9248046875-.1650390625-1.3203125-.5283203125-1.68359375-1.947265625-3.0693359375-4.0595703125-3.0693359375-2.7724609375,0-4.7529296875,2.3427734375-4.7529296875,6.0390625,0,3.1357421875,1.583984375,5.7431640625,4.7197265625,5.7431640625,1.7822265625,0,3.3994140625-1.1220703125,4.0263671875-2.970703125.1650390625-.4951171875.2314453125-1.0556640625.2314453125-1.55078125v-2.87109375Z" style="fill: #fff; stroke-width: 0px;"/>
    <path d="M1105.330078125,766.9404296875c.06640625,3.927734375,2.57421875,5.544921875,5.4794921875,5.544921875,2.0791015625,0,3.3330078125-.36328125,4.421875-.8251953125l.4951171875,2.0791015625c-1.0224609375.4619140625-2.7724609375.990234375-5.3134765625.990234375-4.91796875,0-7.85546875-3.234375-7.85546875-8.052734375,0-4.8193359375,2.8388671875-8.6142578125,7.4921875-8.6142578125,5.21484375,0,6.6015625,4.5869140625,6.6015625,7.5244140625,0,.5947265625-.06640625,1.056640625-.099609375,1.353515625h-11.2216796875ZM1113.845703125,764.861328125c.033203125-1.8486328125-.759765625-4.7197265625-4.0263671875-4.7197265625-2.9375,0-4.224609375,2.7060546875-4.4560546875,4.7197265625h8.482421875Z" style="fill: #fff; stroke-width: 0px;"/>
  </g>
  <g>
    <path d="M1002.3720703125,789.8408203125v4.5869140625h4.158203125v2.2119140625h-4.158203125v8.6142578125c0,1.9794921875.560546875,3.1025390625,2.177734375,3.1025390625.759765625,0,1.3203125-.099609375,1.68359375-.1982421875l.1318359375,2.177734375c-.560546875.2314453125-1.4521484375.396484375-2.57421875.396484375-1.353515625,0-2.4423828125-.4287109375-3.1357421875-1.2216796875-.8251953125-.857421875-1.1220703125-2.27734375-1.1220703125-4.158203125v-8.712890625h-2.4755859375v-2.2119140625h2.4755859375v-3.828125l2.8388671875-.7587890625Z" style="fill: #fff; stroke-width: 0px;"/>
    <path d="M1011.248046875,802.943359375c.06640625,3.927734375,2.57421875,5.544921875,5.4794921875,5.544921875,2.0791015625,0,3.3330078125-.36328125,4.421875-.8251953125l.4951171875,2.0791015625c-1.0224609375.4619140625-2.7724609375.990234375-5.3134765625.990234375-4.91796875,0-7.85546875-3.234375-7.85546875-8.052734375,0-4.8193359375,2.8388671875-8.6142578125,7.4921875-8.6142578125,5.21484375,0,6.6015625,4.5869140625,6.6015625,7.5244140625,0,.5947265625-.06640625,1.056640625-.099609375,1.353515625h-11.2216796875ZM1019.763671875,800.8642578125c.033203125-1.8486328125-.759765625-4.7197265625-4.0263671875-4.7197265625-2.9375,0-4.224609375,2.7060546875-4.4560546875,4.7197265625h8.482421875Z" style="fill: #fff; stroke-width: 0px;"/>
    <path d="M1026.1630859375,799.412109375c0-1.8818359375-.033203125-3.4990234375-.1318359375-4.984375h2.541015625l.099609375,3.1357421875h.1318359375c.7255859375-2.1455078125,2.4755859375-3.498046875,4.4228515625-3.498046875.330078125,0,.560546875.0322265625.8251953125.0986328125v2.7392578125c-.2978515625-.06640625-.5947265625-.0986328125-.990234375-.0986328125-2.046875,0-3.4990234375,1.55078125-3.89453125,3.7294921875-.06640625.3955078125-.1328125.857421875-.1328125,1.3525390625v8.515625h-2.87109375v-10.990234375Z" style="fill: #fff; stroke-width: 0px;"/>
    <path d="M1037.0869140625,799.412109375c0-1.8818359375-.033203125-3.4990234375-.1318359375-4.984375h2.541015625l.099609375,3.1357421875h.1318359375c.7255859375-2.1455078125,2.4755859375-3.498046875,4.4228515625-3.498046875.330078125,0,.560546875.0322265625.8251953125.0986328125v2.7392578125c-.2978515625-.06640625-.5947265625-.0986328125-.990234375-.0986328125-2.046875,0-3.4990234375,1.55078125-3.89453125,3.7294921875-.06640625.3955078125-.1328125.857421875-.1328125,1.3525390625v8.515625h-2.87109375v-10.990234375Z" style="fill: #fff; stroke-width: 0px;"/>
    <path d="M1051.2109375,789.939453125c.033203125.990234375-.6923828125,1.7822265625-1.84765625,1.7822265625-1.0234375,0-1.75-.7919921875-1.75-1.7822265625,0-1.0234375.759765625-1.8154296875,1.8154296875-1.8154296875,1.08984375,0,1.7822265625.7919921875,1.7822265625,1.8154296875ZM1047.9765625,810.40234375v-15.974609375h2.904296875v15.974609375h-2.904296875Z" style="fill: #fff; stroke-width: 0px;"/>
    <path d="M1059.197265625,789.8408203125v4.5869140625h4.158203125v2.2119140625h-4.158203125v8.6142578125c0,1.9794921875.560546875,3.1025390625,2.177734375,3.1025390625.759765625,0,1.3203125-.099609375,1.68359375-.1982421875l.1318359375,2.177734375c-.560546875.2314453125-1.4521484375.396484375-2.57421875.396484375-1.353515625,0-2.4423828125-.4287109375-3.1357421875-1.2216796875-.8251953125-.857421875-1.1220703125-2.27734375-1.1220703125-4.158203125v-8.712890625h-2.4755859375v-2.2119140625h2.4755859375v-3.828125l2.8388671875-.7587890625Z" style="fill: #fff; stroke-width: 0px;"/>
    <path d="M1080.912109375,802.283203125c0,5.908203125-4.0927734375,8.482421875-7.9541015625,8.482421875-4.3232421875,0-7.6572265625-3.1689453125-7.6572265625-8.21875,0-5.3466796875,3.4990234375-8.4814453125,7.921875-8.4814453125,4.5869140625,0,7.689453125,3.3330078125,7.689453125,8.2177734375ZM1068.23828125,802.4482421875c0,3.498046875,2.013671875,6.138671875,4.8515625,6.138671875,2.7724609375,0,4.8515625-2.607421875,4.8515625-6.205078125,0-2.7060546875-1.3525390625-6.138671875-4.78515625-6.138671875s-4.91796875,3.1689453125-4.91796875,6.205078125Z" style="fill: #fff; stroke-width: 0px;"/>
    <path d="M1084.572265625,799.412109375c0-1.8818359375-.033203125-3.4990234375-.1318359375-4.984375h2.541015625l.099609375,3.1357421875h.1318359375c.7255859375-2.1455078125,2.4755859375-3.498046875,4.4228515625-3.498046875.330078125,0,.560546875.0322265625.8251953125.0986328125v2.7392578125c-.2978515625-.06640625-.5947265625-.0986328125-.990234375-.0986328125-2.046875,0-3.4990234375,1.55078125-3.89453125,3.7294921875-.06640625.3955078125-.1318359375.857421875-.1318359375,1.3525390625v8.515625h-2.8720703125v-10.990234375Z" style="fill: #fff; stroke-width: 0px;"/>
    <path d="M1098.697265625,789.939453125c.033203125.990234375-.6923828125,1.7822265625-1.84765625,1.7822265625-1.0234375,0-1.75-.7919921875-1.75-1.7822265625,0-1.0234375.759765625-1.8154296875,1.8154296875-1.8154296875,1.08984375,0,1.7822265625.7919921875,1.7822265625,1.8154296875ZM1095.462890625,810.40234375v-15.974609375h2.904296875v15.974609375h-2.904296875Z" style="fill: #fff; stroke-width: 0px;"/>
    <path d="M1112.0302734375,810.40234375l-.2314453125-2.013671875h-.0986328125c-.8916015625,1.2548828125-2.607421875,2.376953125-4.884765625,2.376953125-3.234375,0-4.884765625-2.27734375-4.884765625-4.587890625,0-3.861328125,3.4326171875-5.9736328125,9.6044921875-5.9404296875v-.330078125c0-1.3203125-.36328125-3.697265625-3.630859375-3.697265625-1.4853515625,0-3.0361328125.462890625-4.158203125,1.1884765625l-.66015625-1.9140625c1.3203125-.8583984375,3.234375-1.4189453125,5.2470703125-1.4189453125,4.884765625,0,6.0732421875,3.3330078125,6.0732421875,6.5341796875v5.974609375c0,1.3857421875.06640625,2.7392578125.263671875,3.828125h-2.6396484375ZM1111.6005859375,802.25c-3.16796875-.0654296875-6.765625.4951171875-6.765625,3.59765625,0,1.880859375,1.25390625,2.7724609375,2.7392578125,2.7724609375,2.0791015625,0,3.3994140625-1.3203125,3.861328125-2.673828125.099609375-.296875.1650390625-.626953125.1650390625-.923828125v-2.7724609375Z" style="fill: #fff; stroke-width: 0px;"/>
    <path d="M1119.08984375,786.96875h2.904296875v23.43359375h-2.904296875v-23.43359375Z" style="fill: #fff; stroke-width: 0px;"/>
  </g>
</svg>