<?xml version="1.0" encoding="UTF-8"?>
<svg id="Calque_1" xmlns="http://www.w3.org/2000/svg" xmlns:xlink="http://www.w3.org/1999/xlink" version="1.1" viewBox="0 0 1280 1024">
  <!-- Generator: Adobe Illustrator 30.1.0, SVG Export Plug-In . SVG Version: 2.1.1 Build 136)  -->
  <defs>
    <style>
      .st0, .st1 {
        fill: none;
      }

      .st2 {
        fill: #72ab9d;
      }

      .st3 {
        fill: #acb8b9;
      }

      .st4 {
        clip-path: url(#clippath-1);
      }

      .st5 {
        fill: #fff;
      }

      .st1 {
        stroke: #009640;
        stroke-width: 6px;
      }

      .st6 {
        fill: #009640;
      }

      .st7 {
        fill: #234f41;
      }

      .st8 {
        fill: #be937f;
      }

      .st9 {
        clip-path: url(#clippath);
      }
    </style>
    <clipPath id="clippath">
      <rect class="st0" x="77.7" y="86.8" width="1124.9" height="831.5"/>
    </clipPath>
    <clipPath id="clippath-1">
      <rect class="st0" x="77.7" y="86.8" width="1124.9" height="831.5"/>
    </clipPath>
  </defs>
  <g class="st9">
    <circle class="st1" cx="701.9" cy="526.6" r="358.5"/>
  </g>
  <path class="st6" d="M560.3,500.1c-4.1-6.7-11-10.1-20.6-10.1s-13.7,3.4-18.4,10.1v-8.4h-25v36.7h25v-3.1c0-7.7,4-12.5,10.1-12.5s9.1,4.7,9.1,12.1v40.3h25v-39.8c0-7.7,4-12.5,10-12.5s9.1,4.7,9.1,12.1v40.3h25v-42.4c0-21.1-9.5-32.7-25.8-32.7s-17.2,3.4-23.6,10.1"/>
  <path class="st6" d="M619,528.4h25.3c0-9,6.4-15.6,14.8-15.6s14.9,6.7,14.9,15.6h25.3c0-21.9-17.5-38.4-40.3-38.4s-40.1,16.5-40.1,38.4"/>
  <path class="st6" d="M763,465v35.1c-4.1-6.5-11.1-10.1-20.2-10.1-19.6,0-34.8,16.1-34.8,38.4h25.3c0-9,6.4-15.6,14.8-15.6s14.9,6.7,14.9,15.6h0v25.3c0,20.9,14.4,34.6,36.7,34.6s36.7-13.7,36.7-34.6v-40.5h-25v39.5c0,7.8-4.7,12.9-11.7,12.9s-11.7-5.1-11.7-12.9v-24.2h0v-63.4h-25Z"/>
  <path class="st6" d="M847.9,536.8c0,9.5,5.3,18.6,21.3,21.6l8.1,1.6c3.7.7,4.8,2.3,4.8,4s-2.7,4.1-7,4.1c-7.5,0-18.6-3.4-28-10.1v21.3c4.1,3.1,14.2,8.8,28,8.8,20.9,0,32.3-8.5,32.3-23.9s-5.1-20.3-20.1-23.6l-10.5-2.3c-3-.6-4.3-2-4.3-3.7s2.6-4,6.4-4c7,0,17.4,2.6,25,7.5v-20.1c-5.8-4.1-15.2-6.8-25.3-6.8-14.7,0-30.9,5.5-30.9,25.5"/>
  <g class="st4">
    <g>
      <path class="st2" d="M362.3,851.1c38.3,64.9,121.9,86.6,186.9,48.3,64.9-38.3,86.6-121.9,48.3-186.9-38.3-64.9-121.9-86.6-186.9-48.3-64.9,38.3-86.6,121.9-48.3,186.9"/>
      <path class="st7" d="M476.7,405.8c0-110.2-89.3-199.5-199.5-199.5s-199.5,89.3-199.5,199.5,89.3,199.5,199.5,199.5,199.5-89.3,199.5-199.5"/>
      <path class="st3" d="M999,86.8c-94.6,0-171.3,75.9-171.3,169.5s76.7,169.5,171.3,169.5,171.3-75.9,171.3-169.5-76.7-169.5-171.3-169.5"/>
      <path class="st8" d="M1060.4,645.3c-75.4,0-136.5,61.1-136.5,136.5s61.1,136.5,136.5,136.5,136.5-61.1,136.5-136.5-61.1-136.5-136.5-136.5"/>
    </g>
  </g>
  <g>
    <path class="st5" d="M158.4,386.9c0-7.1,5.6-12.4,13.2-12.4s4.9.7,6.9,2.1v5.3c-1.8-1.8-4.3-2.8-6.8-2.8-4.9,0-8.2,3.3-8.2,7.9s3.3,7.8,8.2,7.8,5-1,6.8-2.8v5.3c-2,1.4-4.6,2.1-6.9,2.1-7.6,0-13.2-5.3-13.2-12.3Z"/>
    <path class="st5" d="M180.6,390.2c0-5.2,4.1-9.1,9.4-9.1s9.4,3.9,9.4,9.1-4.1,9-9.4,9-9.4-3.9-9.4-9ZM190,394.9c2.6,0,4.6-2,4.6-4.7s-2-4.8-4.6-4.8-4.6,2-4.6,4.8,2,4.7,4.6,4.7Z"/>
    <path class="st5" d="M207.3,384.1c1.1-1.9,2.9-3,5.1-3,4.1,0,6.8,2.9,6.8,7.7v10.1h-4.8v-9.4c0-2.4-1.4-3.9-3.5-3.9s-3.6,1.8-3.6,4.3v9h-4.8v-17.3h4.8v2.6Z"/>
    <path class="st5" d="M227.9,384.1c1.1-1.9,2.9-3,5.1-3,4.1,0,6.8,2.9,6.8,7.7v10.1h-4.8v-9.4c0-2.4-1.4-3.9-3.5-3.9s-3.6,1.8-3.6,4.3v9h-4.8v-17.3h4.8v2.6Z"/>
    <path class="st5" d="M249,385.2c-1.9,0-3.7.7-5.2,2v-4.2c1.6-1.3,3.8-1.8,5.9-1.8,4.9,0,8.3,3,8.3,7.2v10.5h-4.8v-2.2c-.8,1.6-2.6,2.6-4.7,2.6-3.4,0-5.8-2.4-5.8-5.6s2.6-5.5,6.2-5.5,3.2.5,4.3,1.3v-.8c0-2.2-1.7-3.4-4.2-3.4ZM249.8,395.5c1.9,0,3.3-1.2,3.4-3.1h0c-1-.6-2.1-1-3.2-1s-2.6.9-2.6,2.1,1,2,2.4,2Z"/>
    <path class="st5" d="M264.3,373.6c1.7,0,3,1.4,3,2.9s-1.3,2.9-3,2.9-2.9-1.3-2.9-2.9,1.2-2.9,2.9-2.9ZM266.7,398.8h-4.8v-17.3h4.8v17.3Z"/>
    <path class="st5" d="M282.9,382.8v4c-1.7-1.2-4.1-1.8-5.7-1.8s-2.2.5-2.2,1.4.4,1.2,1.6,1.5l2.4.5c3.5.8,4.7,2.9,4.7,5.4s-2.6,5.4-7.2,5.4-5.3-1.3-6.5-2.1v-4.3c2.1,1.6,4.6,2.4,6.5,2.4s2.4-.6,2.4-1.6-.4-1.4-1.8-1.6l-2-.4c-3.7-.7-4.9-2.7-4.9-4.9,0-4.3,3.5-5.6,6.9-5.6s4.4.6,5.8,1.7Z"/>
    <path class="st5" d="M298.9,382.8v4c-1.7-1.2-4.1-1.8-5.7-1.8s-2.2.5-2.2,1.4.4,1.2,1.6,1.5l2.4.5c3.5.8,4.7,2.9,4.7,5.4s-2.6,5.4-7.2,5.4-5.3-1.3-6.5-2.1v-4.3c2.1,1.6,4.6,2.4,6.5,2.4s2.4-.6,2.4-1.6-.4-1.4-1.8-1.6l-2-.4c-3.7-.7-4.9-2.7-4.9-4.9,0-4.3,3.5-5.6,6.9-5.6s4.4.6,5.8,1.7Z"/>
    <path class="st5" d="M308.2,385.2c-1.9,0-3.7.7-5.2,2v-4.2c1.6-1.3,3.8-1.8,5.9-1.8,4.9,0,8.3,3,8.3,7.2v10.5h-4.8v-2.2c-.8,1.6-2.6,2.6-4.7,2.6-3.4,0-5.8-2.4-5.8-5.6s2.6-5.5,6.2-5.5,3.2.5,4.3,1.3v-.8c0-2.2-1.7-3.4-4.2-3.4ZM309,395.5c1.9,0,3.3-1.2,3.4-3.1h0c-1-.6-2.1-1-3.2-1s-2.6.9-2.6,2.1,1,2,2.4,2Z"/>
    <path class="st5" d="M325.9,384.1c1.1-1.9,2.9-3,5.1-3,4.1,0,6.8,2.9,6.8,7.7v10.1h-4.8v-9.4c0-2.4-1.4-3.9-3.5-3.9s-3.6,1.8-3.6,4.3v9h-4.8v-17.3h4.8v2.6Z"/>
    <path class="st5" d="M340.7,390.2c0-5.5,4-9.1,9.6-9.1s3.7.5,5.2,1.8v4.8c-1.3-1.5-3-2.2-4.9-2.2-2.8,0-5,2-5,4.8s2.2,4.7,5,4.7,3.7-.8,5-2.3v4.8c-1.5,1.3-3.8,1.8-5.3,1.8-5.5,0-9.6-3.6-9.6-9Z"/>
    <path class="st5" d="M357.8,390.2c0-5.1,3.5-9.1,8.7-9.1s8.6,4.6,7.8,10.2h-12.1c.5,2.4,2.4,3.9,5.6,3.9s4.3-.9,5.9-2.3v4.2c-1.4,1.2-3.7,2.1-6.7,2.1-5.5,0-9.2-3.6-9.2-9ZM369.6,388c-.1-1.7-1.4-3.2-3.4-3.2s-3.3,1-3.9,3.2h7.3Z"/>
    <path class="st5" d="M389.7,382.8v4c-1.7-1.2-4.1-1.8-5.7-1.8s-2.2.5-2.2,1.4.4,1.2,1.6,1.5l2.4.5c3.5.8,4.7,2.9,4.7,5.4s-2.6,5.4-7.2,5.4-5.3-1.3-6.5-2.1v-4.3c2.1,1.6,4.6,2.4,6.5,2.4s2.4-.6,2.4-1.6-.4-1.4-1.8-1.6l-2-.4c-3.7-.7-4.9-2.7-4.9-4.9,0-4.3,3.5-5.6,6.9-5.6s4.4.6,5.8,1.7Z"/>
    <path class="st5" d="M186.2,423.6v4c-1.7-1.2-4.1-1.8-5.7-1.8s-2.2.5-2.2,1.4.4,1.2,1.6,1.5l2.4.5c3.5.8,4.7,2.9,4.7,5.4s-2.6,5.4-7.2,5.4-5.3-1.3-6.5-2.1v-4.3c2.1,1.6,4.6,2.4,6.5,2.4s2.4-.6,2.4-1.6-.4-1.4-1.8-1.6l-2-.4c-3.7-.7-4.9-2.7-4.9-4.9,0-4.3,3.5-5.6,6.9-5.6s4.4.6,5.8,1.7Z"/>
    <path class="st5" d="M189.1,431c0-5.5,4-9.1,9.6-9.1s3.7.5,5.2,1.8v4.8c-1.3-1.5-3-2.2-4.9-2.2-2.8,0-5,2-5,4.8s2.2,4.7,5,4.7,3.7-.8,5-2.3v4.8c-1.5,1.3-3.8,1.8-5.3,1.8-5.5,0-9.6-3.6-9.6-9Z"/>
    <path class="st5" d="M209.6,414.4c1.7,0,3,1.4,3,2.9s-1.3,2.9-3,2.9-2.9-1.3-2.9-2.9,1.2-2.9,2.9-2.9ZM212.1,439.6h-4.8v-17.3h4.8v17.3Z"/>
    <path class="st5" d="M215.2,431c0-5.1,3.5-9.1,8.7-9.1s8.6,4.6,7.8,10.2h-12.1c.5,2.4,2.4,3.9,5.6,3.9s4.3-.9,5.9-2.3v4.2c-1.4,1.2-3.7,2.1-6.7,2.1-5.5,0-9.2-3.6-9.2-9ZM227,428.8c-.1-1.7-1.4-3.2-3.4-3.2s-3.3,1-3.9,3.2h7.3Z"/>
    <path class="st5" d="M239.7,424.9c1.1-1.9,2.9-3,5.1-3,4.1,0,6.8,2.9,6.8,7.7v10.1h-4.8v-9.4c0-2.4-1.4-3.9-3.5-3.9s-3.6,1.8-3.6,4.3v9h-4.8v-17.3h4.8v2.6Z"/>
    <path class="st5" d="M261.3,417.7v4.7h5.7v3.9h-5.7v6.2c0,2.4,1.4,3.5,2.9,3.5s2.1-.3,2.8-.7v4.1c-1.2.5-2.6.7-3.7.7-3.9,0-6.8-2.3-6.8-7.3v-6.4h-2.8v-3.9h2.8v-4.7h4.8Z"/>
    <path class="st5" d="M272.2,414.4c1.7,0,3,1.4,3,2.9s-1.3,2.9-3,2.9-2.9-1.3-2.9-2.9,1.2-2.9,2.9-2.9ZM274.6,439.6h-4.8v-17.3h4.8v17.3Z"/>
    <path class="st5" d="M297.6,439.6h-4.8v-13.4h-7.9v13.4h-4.8v-13.4h-2.8v-3.9h2.8v-.8c0-5,3-7.4,6.8-7.4s2.4.3,3.7.8v4.1c-.7-.4-1.6-.7-2.8-.7s-2.9,1-2.9,3.4v.5h12.7v17.3ZM295.2,414.4c1.7,0,3,1.4,3,2.9s-1.3,2.9-3,2.9-2.9-1.3-2.9-2.9,1.2-2.9,2.9-2.9Z"/>
    <path class="st5" d="M300.7,431c0-5.2,3.7-9.1,8.4-9.1s4.5,1.1,5.5,3.1v-2.7h4.8v24h-4.8v-9.4c-1,1.9-3,3.1-5.5,3.1-4.7,0-8.4-3.8-8.4-9ZM310.1,435.7c2.6,0,4.6-2,4.6-4.7s-2-4.8-4.6-4.8-4.6,2-4.6,4.8,2,4.7,4.6,4.7Z"/>
    <path class="st5" d="M323.3,432v-9.6h4.8v9.5c0,2.4,1.4,3.9,3.6,3.9s3.6-1.6,3.6-3.9v-9.5h4.8v9.6c0,4.9-3.3,8.1-8.4,8.1s-8.4-3.2-8.4-8.1Z"/>
    <path class="st5" d="M342.9,431c0-5.1,3.5-9.1,8.7-9.1s8.6,4.6,7.8,10.2h-12.1c.5,2.4,2.4,3.9,5.6,3.9s4.3-.9,5.9-2.3v4.2c-1.4,1.2-3.7,2.1-6.7,2.1-5.5,0-9.2-3.6-9.2-9ZM354.6,428.8c-.1-1.7-1.4-3.2-3.4-3.2s-3.3,1-3.9,3.2h7.3Z"/>
    <path class="st5" d="M374.7,423.6v4c-1.7-1.2-4.1-1.8-5.7-1.8s-2.2.5-2.2,1.4.4,1.2,1.6,1.5l2.4.5c3.5.8,4.7,2.9,4.7,5.4s-2.6,5.4-7.2,5.4-5.3-1.3-6.5-2.1v-4.3c2.1,1.6,4.6,2.4,6.5,2.4s2.4-.6,2.4-1.6-.4-1.4-1.8-1.6l-2-.4c-3.7-.7-4.9-2.7-4.9-4.9,0-4.3,3.5-5.6,6.9-5.6s4.4.6,5.8,1.7Z"/>
  </g>
  <g>
    <path class="st5" d="M395.9,773.9h15.7v4.5h-10.8v4.7h8.9v4.5h-8.9v5.7h11.6v4.5h-16.6v-23.9ZM403.6,767.3h5.2l-3.5,4.6h-4.4l2.7-4.6Z"/>
    <path class="st5" d="M412.6,780.5h5.2l4.4,11.1,4.4-11.1h5.2l-7.7,17.3h-3.9l-7.7-17.3Z"/>
    <path class="st5" d="M438.6,784.2c-1.9,0-3.7.7-5.2,2v-4.2c1.6-1.3,3.8-1.8,5.9-1.8,4.9,0,8.3,3,8.3,7.2v10.5h-4.8v-2.2c-.8,1.6-2.6,2.6-4.7,2.6-3.4,0-5.8-2.4-5.8-5.6s2.6-5.5,6.2-5.5,3.2.5,4.3,1.3v-.8c0-2.2-1.7-3.4-4.2-3.4ZM439.4,794.5c1.9,0,3.3-1.2,3.4-3.1h0c-1-.6-2.1-1-3.2-1s-2.6.9-2.6,2.1,1,2,2.4,2Z"/>
    <path class="st5" d="M456.3,797.8h-4.8v-23.9h4.8v23.9Z"/>
    <path class="st5" d="M460.2,790.1v-9.6h4.8v9.5c0,2.4,1.4,3.9,3.6,3.9s3.6-1.6,3.6-3.9v-9.5h4.8v9.6c0,4.9-3.3,8.1-8.4,8.1s-8.4-3.2-8.4-8.1Z"/>
    <path class="st5" d="M486.1,784.2c-1.9,0-3.7.7-5.2,2v-4.2c1.6-1.3,3.8-1.8,5.9-1.8,4.9,0,8.3,3,8.3,7.2v10.5h-4.8v-2.2c-.8,1.6-2.6,2.6-4.7,2.6-3.4,0-5.8-2.4-5.8-5.6s2.6-5.5,6.2-5.5,3.2.5,4.3,1.3v-.8c0-2.2-1.7-3.4-4.2-3.4ZM486.9,794.5c1.9,0,3.3-1.2,3.4-3.1h0c-1-.6-2.1-1-3.2-1s-2.6.9-2.6,2.1,1,2,2.4,2Z"/>
    <path class="st5" d="M504.6,775.9v4.7h5.7v3.9h-5.7v6.2c0,2.4,1.4,3.5,2.9,3.5s2.1-.3,2.8-.7v4.1c-1.2.5-2.6.7-3.7.7-3.9,0-6.8-2.3-6.8-7.3v-6.4h-2.8v-3.9h2.8v-4.7h4.8Z"/>
    <path class="st5" d="M515.5,772.6c1.7,0,3,1.4,3,2.9s-1.3,2.9-3,2.9-2.9-1.3-2.9-2.9,1.2-2.9,2.9-2.9ZM517.9,797.8h-4.8v-17.3h4.8v17.3Z"/>
    <path class="st5" d="M521,789.2c0-5.2,4.1-9.1,9.4-9.1s9.4,3.9,9.4,9.1-4.1,9-9.4,9-9.4-3.9-9.4-9ZM530.4,793.9c2.6,0,4.6-2,4.6-4.7s-2-4.8-4.6-4.8-4.6,2-4.6,4.8,2,4.7,4.6,4.7Z"/>
    <path class="st5" d="M547.7,783.1c1.1-1.9,2.9-3,5.1-3,4.1,0,6.8,2.9,6.8,7.7v10.1h-4.8v-9.4c0-2.4-1.4-3.9-3.5-3.9s-3.6,1.8-3.6,4.3v9h-4.8v-17.3h4.8v2.6Z"/>
  </g>
  <g>
    <path class="st5" d="M1001.6,749h5.2l10,23.9h-5.2l-2.3-5.5h-10.2l-2.3,5.5h-5.2l10-23.9ZM1007.5,762.9l-3.3-7.9-3.2,7.9h6.5Z"/>
    <path class="st5" d="M1023.6,758.2c1.1-1.9,2.9-3,5.1-3,4.1,0,6.8,2.9,6.8,7.7v10.1h-4.8v-9.4c0-2.4-1.4-3.9-3.5-3.9s-3.6,1.8-3.6,4.3v9h-4.8v-17.3h4.8v2.6Z"/>
    <path class="st5" d="M1038.4,764.3c0-5.5,4-9.1,9.6-9.1s3.7.5,5.2,1.8v4.8c-1.3-1.5-3-2.2-4.9-2.2-2.8,0-5,2-5,4.8s2.2,4.7,5,4.7,3.7-.8,5-2.3v4.8c-1.5,1.3-3.8,1.8-5.3,1.8-5.5,0-9.6-3.6-9.6-9Z"/>
    <path class="st5" d="M1056.6,755.6h4.8v3.5c.6-2.3,2.5-3.9,4.8-3.9s1.8.2,2.7.6v4.5c-1-.6-2-.7-2.9-.7-2.5,0-4.5,2.1-4.5,5.5v7.8h-4.8v-17.3Z"/>
    <path class="st5" d="M1076.2,759.3c-1.9,0-3.7.7-5.2,2v-4.2c1.6-1.3,3.8-1.8,5.9-1.8,4.9,0,8.3,3,8.3,7.2v10.5h-4.8v-2.2c-.8,1.6-2.6,2.6-4.7,2.6-3.4,0-5.8-2.4-5.8-5.6s2.6-5.5,6.2-5.5,3.2.5,4.3,1.3v-.8c0-2.2-1.7-3.4-4.2-3.4ZM1077,769.6c1.9,0,3.3-1.2,3.4-3.1h0c-1-.6-2.1-1-3.2-1s-2.6.8-2.6,2.1,1,2,2.4,2Z"/>
    <path class="st5" d="M1088,764c0-5,3.6-8.7,8.3-8.7s4.5,1.1,5.5,3v-2.6h4.8v15.9c0,5.4-4,8.6-9.2,8.6s-5-.6-7-1.9v-4c1.9,1.3,4.3,2,6.2,2,3,0,5.3-1.6,5.3-4.9v-1.5c-1,1.9-3,3-5.5,3-4.7,0-8.3-3.7-8.3-8.7ZM1097.4,768.5c2.5,0,4.5-1.9,4.5-4.6s-1.9-4.6-4.5-4.6-4.5,1.9-4.5,4.6,2,4.6,4.5,4.6Z"/>
    <path class="st5" d="M1109.7,764.3c0-5.1,3.5-9.1,8.7-9.1s8.6,4.6,7.8,10.2h-12.1c.5,2.4,2.4,3.9,5.6,3.9s4.3-.9,5.9-2.3v4.2c-1.4,1.2-3.7,2.1-6.7,2.1-5.5,0-9.2-3.6-9.2-9ZM1121.5,762.1c-.1-1.7-1.4-3.2-3.4-3.2s-3.3,1-3.9,3.2h7.3Z"/>
    <path class="st5" d="M989.1,791.8v4.7h5.7v3.9h-5.7v6.2c0,2.4,1.4,3.5,2.9,3.5s2.1-.3,2.8-.7v4.1c-1.2.5-2.6.7-3.7.7-3.9,0-6.8-2.3-6.8-7.3v-6.4h-2.8v-3.9h2.8v-4.7h4.8Z"/>
    <path class="st5" d="M996.3,805.1c0-5.1,3.5-9.1,8.7-9.1s8.6,4.6,7.8,10.2h-12.1c.5,2.4,2.4,3.9,5.6,3.9s4.3-.9,5.9-2.3v4.2c-1.4,1.2-3.7,2.1-6.7,2.1-5.5,0-9.2-3.6-9.2-9ZM1008.1,803c-.1-1.7-1.4-3.2-3.4-3.2s-3.3,1-3.9,3.2h7.3Z"/>
    <path class="st5" d="M1016.1,796.5h4.8v3.5c.6-2.3,2.5-3.9,4.8-3.9s1.8.2,2.7.6v4.5c-1-.6-2-.7-2.9-.7-2.5,0-4.5,2.1-4.5,5.5v7.8h-4.8v-17.3Z"/>
    <path class="st5" d="M1030.8,796.5h4.8v3.5c.6-2.3,2.5-3.9,4.8-3.9s1.8.2,2.7.6v4.5c-1-.6-2-.7-2.9-.7-2.5,0-4.5,2.1-4.5,5.5v7.8h-4.8v-17.3Z"/>
    <path class="st5" d="M1047.8,788.6c1.7,0,3,1.4,3,2.9s-1.3,2.9-3,2.9-2.9-1.3-2.9-2.9,1.2-2.9,2.9-2.9ZM1050.3,813.8h-4.8v-17.3h4.8v17.3Z"/>
    <path class="st5" d="M1060.3,791.8v4.7h5.7v3.9h-5.7v6.2c0,2.4,1.4,3.5,2.9,3.5s2.1-.3,2.8-.7v4.1c-1.2.5-2.6.7-3.7.7-3.9,0-6.8-2.3-6.8-7.3v-6.4h-2.8v-3.9h2.8v-4.7h4.8Z"/>
    <path class="st5" d="M1067.5,805.1c0-5.2,4.1-9.1,9.4-9.1s9.4,3.9,9.4,9.1-4.1,9-9.4,9-9.4-3.9-9.4-9ZM1076.9,809.9c2.6,0,4.6-2,4.6-4.7s-2-4.8-4.6-4.8-4.6,2-4.6,4.8,2,4.7,4.6,4.7Z"/>
    <path class="st5" d="M1089.3,796.5h4.8v3.5c.6-2.3,2.5-3.9,4.8-3.9s1.8.2,2.7.6v4.5c-1-.6-2-.7-2.9-.7-2.5,0-4.5,2.1-4.5,5.5v7.8h-4.8v-17.3Z"/>
    <path class="st5" d="M1106.4,788.6c1.7,0,3,1.4,3,2.9s-1.3,2.9-3,2.9-2.9-1.3-2.9-2.9,1.2-2.9,2.9-2.9ZM1108.8,813.8h-4.8v-17.3h4.8v17.3Z"/>
    <path class="st5" d="M1118.2,800.1c-1.9,0-3.7.7-5.2,2v-4.2c1.6-1.3,3.8-1.8,5.9-1.8,4.9,0,8.3,3,8.3,7.2v10.5h-4.8v-2.2c-.8,1.6-2.6,2.6-4.7,2.6-3.4,0-5.8-2.4-5.8-5.6s2.6-5.5,6.2-5.5,3.2.5,4.3,1.3v-.8c0-2.2-1.7-3.4-4.2-3.4ZM1119,810.5c1.9,0,3.3-1.2,3.4-3.1h0c-1-.6-2.1-1-3.2-1s-2.6.9-2.6,2.1,1,2,2.4,2Z"/>
    <path class="st5" d="M1135.9,813.8h-4.8v-23.9h4.8v23.9Z"/>
  </g>
  <g>
    <path class="st5" d="M904.5,227h15.7v4.5h-10.8v4.7h8.9v4.5h-8.9v5.7h11.6v4.5h-16.6v-23.9Z"/>
    <path class="st5" d="M928,241.9l-5.6-8.3h5.5l2.9,4.3,2.9-4.3h5.6l-5.6,8.4,6,8.9h-5.5l-3.3-5-3.3,5h-5.5l6-9Z"/>
    <path class="st5" d="M946.5,248.3v9.4h-4.8v-24h4.8v2.6c1.1-1.9,3-3,5.5-3,4.7,0,8.4,3.8,8.4,9.1s-3.7,9-8.4,9-4.5-1.1-5.5-3ZM951.1,247c2.6,0,4.6-2,4.6-4.7s-2-4.8-4.6-4.8-4.6,2-4.6,4.8,2,4.7,4.6,4.7Z"/>
    <path class="st5" d="M962.6,242.3c0-5.1,3.5-9.1,8.7-9.1s8.6,4.6,7.8,10.2h-12.1c.5,2.4,2.4,3.9,5.6,3.9s4.3-.9,5.9-2.3v4.2c-1.4,1.2-3.7,2.1-6.7,2.1-5.5,0-9.2-3.6-9.2-9ZM974.4,240.1c-.1-1.7-1.4-3.2-3.4-3.2s-3.3,1-3.9,3.2h7.3ZM971.2,226.3h5l-3.5,5.3h-4.2l2.7-5.3Z"/>
    <path class="st5" d="M982.5,233.6h4.8v3.5c.6-2.3,2.5-3.9,4.8-3.9s1.8.2,2.7.6v4.5c-1-.6-2-.7-2.9-.7-2.5,0-4.5,2.1-4.5,5.5v7.8h-4.8v-17.3Z"/>
    <path class="st5" d="M999.5,225.7c1.7,0,3,1.4,3,2.9s-1.3,2.9-3,2.9-2.9-1.3-2.9-2.9,1.2-2.9,2.9-2.9ZM1001.9,250.9h-4.8v-17.3h4.8v17.3Z"/>
    <path class="st5" d="M1005.1,242.3c0-5.1,3.5-9.1,8.7-9.1s8.6,4.6,7.8,10.2h-12.1c.5,2.4,2.4,3.9,5.6,3.9s4.3-.9,5.9-2.3v4.2c-1.4,1.2-3.7,2.1-6.7,2.1-5.5,0-9.2-3.6-9.2-9ZM1016.8,240.1c-.1-1.7-1.4-3.2-3.4-3.2s-3.3,1-3.9,3.2h7.3Z"/>
    <path class="st5" d="M1029.6,236.2c1.1-1.9,2.9-3,5.1-3,4.1,0,6.8,2.9,6.8,7.7v10.1h-4.8v-9.4c0-2.4-1.4-3.9-3.5-3.9s-3.6,1.8-3.6,4.3v9h-4.8v-17.3h4.8v2.6Z"/>
    <path class="st5" d="M1044.4,242.3c0-5.5,4-9.1,9.6-9.1s3.7.5,5.2,1.8v4.8c-1.3-1.5-3-2.2-4.9-2.2-2.8,0-5,2-5,4.8s2.2,4.7,5,4.7,3.7-.8,5-2.3v4.8c-1.5,1.3-3.8,1.8-5.3,1.8-5.5,0-9.6-3.6-9.6-9Z"/>
    <path class="st5" d="M1061.6,242.3c0-5.1,3.5-9.1,8.7-9.1s8.6,4.6,7.8,10.2h-12.1c.5,2.4,2.4,3.9,5.6,3.9s4.3-.9,5.9-2.3v4.2c-1.4,1.2-3.7,2.1-6.7,2.1-5.5,0-9.2-3.6-9.2-9ZM1073.3,240.1c-.1-1.7-1.4-3.2-3.4-3.2s-3.3,1-3.9,3.2h7.3Z"/>
    <path class="st5" d="M1093.4,234.9v4c-1.7-1.2-4.1-1.8-5.7-1.8s-2.2.5-2.2,1.4.4,1.2,1.6,1.5l2.4.5c3.5.8,4.7,2.9,4.7,5.4s-2.6,5.4-7.2,5.4-5.3-1.3-6.5-2.1v-4.3c2.1,1.6,4.6,2.4,6.5,2.4s2.4-.6,2.4-1.6-.4-1.4-1.8-1.6l-2-.4c-3.7-.7-4.9-2.7-4.9-4.9,0-4.3,3.5-5.6,6.9-5.6s4.4.6,5.8,1.7Z"/>
    <path class="st5" d="M929.2,274c2.5,0,4.5,1.1,5.5,3.1v-9.3h4.8v23.9h-4.8v-2.7c-1,1.9-3,3.1-5.5,3.1-4.7,0-8.4-3.8-8.4-9s3.7-9.1,8.4-9.1ZM934.7,283.1c0-2.7-2-4.8-4.6-4.8s-4.6,2-4.6,4.8,2,4.7,4.6,4.7,4.6-2,4.6-4.7Z"/>
    <path class="st5" d="M942.6,283.1c0-5.1,3.5-9.1,8.7-9.1s8.6,4.6,7.8,10.2h-12.1c.5,2.4,2.4,3.9,5.6,3.9s4.3-.9,5.9-2.3v4.2c-1.4,1.2-3.7,2.1-6.7,2.1-5.5,0-9.2-3.6-9.2-9ZM954.4,281c-.1-1.7-1.4-3.2-3.4-3.2s-3.3,1-3.9,3.2h7.3Z"/>
    <path class="st5" d="M975.8,269.8v4.7h5.7v3.9h-5.7v6.2c0,2.4,1.4,3.5,2.9,3.5s2.1-.3,2.8-.7v4.1c-1.2.5-2.6.7-3.7.7-3.9,0-6.8-2.3-6.8-7.3v-6.4h-2.8v-3.9h2.8v-4.7h4.8Z"/>
    <path class="st5" d="M983,283.1c0-5.1,3.5-9.1,8.7-9.1s8.6,4.6,7.8,10.2h-12.1c.5,2.4,2.4,3.9,5.6,3.9s4.3-.9,5.9-2.3v4.2c-1.4,1.2-3.7,2.1-6.7,2.1-5.5,0-9.2-3.6-9.2-9ZM994.7,281c-.1-1.7-1.4-3.2-3.4-3.2s-3.3,1-3.9,3.2h7.3Z"/>
    <path class="st5" d="M1002.8,274.5h4.8v3.5c.6-2.3,2.5-3.9,4.8-3.9s1.8.2,2.7.6v4.5c-1-.6-2-.7-2.9-.7-2.5,0-4.5,2.1-4.5,5.5v7.8h-4.8v-17.3Z"/>
    <path class="st5" d="M1017.5,274.5h4.8v3.5c.6-2.3,2.5-3.9,4.8-3.9s1.8.2,2.7.6v4.5c-1-.6-2-.7-2.9-.7-2.5,0-4.5,2.1-4.5,5.5v7.8h-4.8v-17.3Z"/>
    <path class="st5" d="M1037,278.1c-1.9,0-3.7.7-5.2,2v-4.2c1.6-1.3,3.8-1.8,5.9-1.8,4.9,0,8.3,3,8.3,7.2v10.5h-4.8v-2.2c-.8,1.6-2.6,2.6-4.7,2.6-3.4,0-5.8-2.4-5.8-5.6s2.6-5.5,6.2-5.5,3.2.5,4.3,1.3v-.8c0-2.2-1.7-3.4-4.2-3.4ZM1037.8,288.5c1.9,0,3.3-1.2,3.4-3.1h0c-1-.6-2.1-1-3.2-1s-2.6.9-2.6,2.1,1,2,2.4,2Z"/>
    <path class="st5" d="M1052.3,266.6c1.7,0,3,1.4,3,2.9s-1.3,2.9-3,2.9-2.9-1.3-2.9-2.9,1.2-2.9,2.9-2.9ZM1054.7,291.8h-4.8v-17.3h4.8v17.3Z"/>
    <path class="st5" d="M1063.6,277c1.1-1.9,2.9-3,5.1-3,4.1,0,6.8,2.9,6.8,7.7v10.1h-4.8v-9.4c0-2.4-1.4-3.9-3.5-3.9s-3.6,1.8-3.6,4.3v9h-4.8v-17.3h4.8v2.6Z"/>
  </g>
</svg>