<?xml version="1.0" encoding="UTF-8"?>
<svg id="Calque_1" xmlns="http://www.w3.org/2000/svg" xmlns:xlink="http://www.w3.org/1999/xlink" viewBox="0 0 783.31 107.84">
  <defs>
    <style>
      .cls-1 {
        fill: none;
      }

      .cls-2 {
        fill: #2e5a65;
      }

      .cls-2, .cls-3 {
        fill-rule: evenodd;
      }

      .cls-4 {
        fill: #fff;
        stroke: #000;
        stroke-miterlimit: 10;
      }

      .cls-3 {
        fill: #4b8b9c;
      }

      .cls-5 {
        clip-path: url(#clippath);
      }
    </style>
    <clipPath id="clippath">
      <rect class="cls-1" x="278.56" y="33.17" width="226.19" height="35.88"/>
    </clipPath>
  </defs>
  <rect class="cls-4" x=".5" width="782.31" height="107.84"/>
  <g class="cls-5">
    <g>
      <path class="cls-3" d="M341.22,61.64h-3.88l-4.95-13.27v13.27h-4.45v-21.29h5.45l5.92,15.62,5.89-15.62h5.42v21.29h-4.45v-13.27l-4.95,13.27ZM353.63,50.98c0-6.23,4.73-10.99,10.96-10.99s10.96,4.76,10.96,10.99-4.73,10.99-10.96,10.99-10.96-4.76-10.96-10.99ZM358.2,50.98c0,3.63,2.76,6.54,6.39,6.54s6.36-2.91,6.36-6.54-2.76-6.54-6.36-6.54-6.39,2.94-6.39,6.54ZM386.25,61.62h-4.45v-17h-5.17v-4.29h15.65l-1.74,4.29h-4.3v17ZM395.07,61.62v-21.29h4.45v21.29h-4.45ZM402.9,50.98c0-6.23,4.73-10.99,10.96-10.99s10.96,4.76,10.96,10.99-4.73,10.99-10.96,10.99-10.96-4.76-10.96-10.99ZM407.48,50.98c0,3.63,2.76,6.54,6.39,6.54s6.36-2.91,6.36-6.54-2.76-6.54-6.36-6.54-6.39,2.94-6.39,6.54ZM441.44,61.62l-8.67-12.3v12.3h-4.45v-18.62l-1.47-2.35v-.31h5.26l9.33,13.55v-13.55h4.45v21.29h-4.45ZM458.68,61.62h-4.45v-17h-5.17v-4.29h15.65l-1.74,4.29h-4.3v17ZM478.18,61.62l-1.6-4.54h-7.61l-1.6,4.54h-4.98l7.89-21.29h4.98l7.89,21.29h-4.98ZM472.79,46.16l-2.35,6.64h4.7l-2.35-6.64ZM500.44,40.99c-1.04,2.76-1.56,4.14-1.56,4.14-1.22-.42-2.67-.7-4.2-.7-3.69,0-6.45,2.75-6.45,6.54s2.57,6.54,6.17,6.54c3.41,0,5.45-2.35,5.45-4.66,0-.12-.03-.34-.03-.47h-2.47l1.3-4.04h5.73c.16.81.28,2.03.28,3.1,0,5.6-3.57,10.52-10.39,10.52-6.17,0-10.61-4.79-10.61-10.99s4.63-10.99,11.02-10.99c2.19,0,4.35.38,5.76,1Z"/>
      <path class="cls-2" d="M299.48,33.17h14.51l-15.81,26.86h-19.62l13.21-22.45c1.61-2.73,4.54-4.41,7.71-4.41Z"/>
      <path class="cls-3" d="M302.68,42.12h19.62l-13.31,22.62c-1.55,2.63-4.36,4.24-7.41,4.24h-14.71l15.81-26.86Z"/>
    </g>
  </g>
</svg>