<?xml version="1.0" encoding="UTF-8"?>
<svg id="Calque_1" data-name="Calque 1" xmlns="http://www.w3.org/2000/svg" viewBox="0 0 1300 1300">
  <defs>
    <style>
      .cls-1 {
        fill: #e5f777;
      }

      .cls-2 {
        fill: #5500b7;
      }

      .cls-3 {
        fill: #ff4d84;
      }
    </style>
  </defs>
  <g>
    <polygon class="cls-1" points="793.45 941.83 604.97 1151.06 507.23 910.42 264.83 1018.97 314.08 804.71 61.03 735.21 353.84 557.97 216.03 332.07 521.01 429.33 719.25 129.52 755.08 476.65 1150.33 327.62 928.01 603.42 1238.97 713.48 948.01 818.63 1030.37 1030.65 793.45 941.83"/>
    <g>
      <path class="cls-2" d="M403.02,428.86c14.23-4.45,27.57-6.67,40.03-6.67,20.22,0,34.83,7.1,43.85,21.29,9.02,14.19,13.53,36.57,13.53,67.14,0,8.33-.32,16.36-.97,24.08-.65,7.72-1.9,15.99-3.76,24.81-1.86,8.82-4.25,16.96-7.16,24.44-2.91,7.48-6.83,14.74-11.77,21.77-4.93,7.04-10.61,13-17.04,17.89-6.43,4.89-14.27,8.81-23.53,11.77-9.26,2.95-19.47,4.43-30.63,4.43-4.12,0-7.44-.17-9.95-.49l-13.22-11.65,20.62-198.82ZM385.19,625.37c1.86.16,4.49.24,7.89.24,11,0,21.04-1.46,30.14-4.37,9.1-2.91,16.8-6.77,23.11-11.59,6.31-4.81,11.89-10.69,16.74-17.65,4.85-6.95,8.71-14.11,11.59-21.47,2.87-7.36,5.19-15.38,6.98-24.08,1.78-8.69,2.99-16.86,3.64-24.5.65-7.64.97-15.55.97-23.72,0-14.15-.97-26.08-2.91-35.79-1.94-9.7-4.85-17.29-8.73-22.74-3.88-5.46-8.35-9.32-13.41-11.59-5.05-2.26-11.1-3.4-18.13-3.4-11.24,0-23.74,2.06-37.48,6.19l-20.38,194.45ZM434.08,460.51c2.02-.56,3.84-.85,5.46-.85s3.01.16,4.18.49c1.17.33,2.49,1.23,3.94,2.73,1.46,1.5,2.63,3.58,3.52,6.25.89,2.67,1.66,6.53,2.31,11.59.65,5.05.97,11.14.97,18.26,0,15.28-1.26,29.52-3.76,42.7-2.51,13.18-6.43,24.14-11.77,32.87-5.34,8.73-11.61,13.1-18.8,13.1l13.95-127.13Z"/>
      <path class="cls-2" d="M540.31,410.05l23.41-37.85,24.75,16.98,11.52,12.38-19.89,21.59,15.16-.97,11.4,13.22-8.25,33.48h-33.24l-4,37.24,25.11-3.15,11.4,13.1-9.22,36.75h-32.27l-4,37.12,33.84-4,11.4,13.1-8.13,38.57h-76.54l-13.22-11.77,20.62-198.94,36.76-2.18-16.62-14.68ZM575.37,623.43l7.4-34.82-46.22,4.97,5.7-54.83h32.39l8.13-33.12-37.48,4.97,5.94-55.92h33.36l7.4-29.72-69.51,4.49-20.14,193.96h73.02ZM558.02,418.91l26.81-29.48-20.14-13.71-20.86,33.84,14.19,9.34Z"/>
      <path class="cls-2" d="M683.54,599.29l-3.15,34.33c-6.31,2.75-11.91,4.55-16.8,5.4-4.89.85-10.41,1.28-16.56,1.28-15.36,0-26.2-4.53-32.51-13.59-6.31-9.06-9.46-24.54-9.46-46.46,0-8.33.69-20.42,2.06-36.27l4.61-48.04c1.37-13.83,3.17-25.09,5.4-33.78,2.22-8.69,5.46-15.91,9.7-21.65,4.24-5.74,9.42-9.86,15.53-12.37,6.11-2.51,13.89-4,23.35-4.49l21.11-1.21,11.65,13.22-4,33.24-18.8,1.7c-4.77.49-8.15,3.01-10.13,7.58-1.98,4.57-3.5,12.07-4.55,22.5l-7.64,74.12c-.89,8.17-1.33,13.46-1.33,15.89l19.89-4.73,11.65,13.34ZM669.23,589.34c-9.62,2.67-16.86,4-21.71,4-3.4,0-5.84-1.11-7.34-3.34-1.5-2.22-2.24-6.08-2.24-11.59,0-3.47.4-8.93,1.21-16.37l7.64-73.99c1.21-11.08,2.85-18.96,4.91-23.66,2.06-4.69,5.8-7.32,11.22-7.88l17.71-1.82,3.4-29.72-18.32,1.21c-8.98.73-16.36,2.3-22.14,4.73-5.78,2.43-10.69,6.41-14.74,11.95-4.04,5.54-7.14,12.48-9.28,20.8-2.14,8.33-3.9,19.16-5.28,32.51l-4.73,48.04c-1.3,14.88-1.94,26.89-1.94,36.03,0,16.01,2,27.68,6,35,4,7.32,11.02,10.98,21.05,10.98,11.81,0,22.32-2.02,31.54-6.07l3.03-30.81Z"/>
      <path class="cls-2" d="M742.1,588.37l16.74-2.91,11.4,13.34-8.01,38.82h-59.56l-13.22-11.77,20.38-198.69,36.75-4.97,11.77,13.22-16.25,152.96ZM748.41,623.43l7.16-34.82-29.36,4.97,17.71-168.61-31.78,4.49-19.89,193.96h56.16Z"/>
      <path class="cls-2" d="M773.12,625.85l20.38-198.69,36.76-4.97,11.77,13.22-20.86,202.21h-34.81l-13.22-11.77ZM807.21,623.43l20.38-198.45-31.78,4.49-19.89,193.96h31.3Z"/>
      <path class="cls-2" d="M919.63,599.29l-3.16,34.33c-6.31,2.75-11.91,4.55-16.8,5.4-4.89.85-10.41,1.28-16.56,1.28-15.37,0-26.2-4.53-32.51-13.59-6.31-9.06-9.46-24.54-9.46-46.46,0-8.33.69-20.42,2.06-36.27l4.61-48.04c1.37-13.83,3.17-25.09,5.4-33.78,2.22-8.69,5.46-15.91,9.7-21.65,4.25-5.74,9.42-9.86,15.53-12.37,6.11-2.51,13.89-4,23.35-4.49l21.11-1.21,11.65,13.22-4.01,33.24-18.8,1.7c-4.77.49-8.15,3.01-10.13,7.58-1.98,4.57-3.5,12.07-4.55,22.5l-7.64,74.12c-.89,8.17-1.34,13.46-1.34,15.89l19.89-4.73,11.65,13.34ZM905.31,589.34c-9.62,2.67-16.86,4-21.71,4-3.4,0-5.84-1.11-7.34-3.34-1.5-2.22-2.25-6.08-2.25-11.59,0-3.47.41-8.93,1.21-16.37l7.64-73.99c1.22-11.08,2.85-18.96,4.91-23.66,2.07-4.69,5.8-7.32,11.22-7.88l17.71-1.82,3.4-29.72-18.32,1.21c-8.97.73-16.36,2.3-22.13,4.73-5.78,2.43-10.7,6.41-14.74,11.95-4.04,5.54-7.14,12.48-9.28,20.8-2.14,8.33-3.9,19.16-5.28,32.51l-4.73,48.04c-1.3,14.88-1.94,26.89-1.94,36.03,0,16.01,2,27.68,6,35,4,7.32,11.02,10.98,21.05,10.98,11.81,0,22.32-2.02,31.54-6.07l3.03-30.81Z"/>
      <path class="cls-2" d="M335,667.97l9.65,54.02,25.44-65.47,38.94-1.45,11.7,13.14-20.74,200.75h-34.61l-13.14-11.69,5.42-50.52-12.54,31.35h-7.48l-13.02-11.69-5.42-30.02-6.63,72.58h-34.6l-13.14-11.69,20.26-197.5,38.34-4.94,11.57,13.14ZM386.12,854.85l20.26-197.25-34.36,1.45-34.85,88.86-16.03-90.31-33.76,4.46-19.77,192.79h31.11l11.33-123.46,16.76,92.6h4.7l36.77-91.15-13.26,122.02h31.11Z"/>
      <path class="cls-2" d="M470.25,871.61c-17.28,0-30.13-5.69-38.52-17.06-8.4-11.37-12.6-29.12-12.6-53.23,0-8.76.72-20.38,2.17-34.84l2.05-19.05c1.13-11.17,2.45-21,3.98-29.48,1.53-8.48,3.72-16.9,6.57-25.26,2.85-8.36,6.23-15.23,10.13-20.62,3.9-5.38,8.86-9.73,14.89-13.02,6.03-3.29,12.94-4.94,20.74-4.94,15.19,0,27.47,5.95,36.84,17.84,9.36,11.9,14.05,29.06,14.05,51.48,0,9.97-.77,22.27-2.29,36.89l-1.93,18.93c-1.29,11.74-2.75,21.95-4.4,30.63-1.65,8.68-3.9,17.08-6.75,25.2-2.85,8.12-6.23,14.73-10.13,19.83-3.9,5.1-8.78,9.16-14.65,12.18-5.87,3.01-12.58,4.52-20.13,4.52ZM514.26,747.67c1.45-13.91,2.17-26.08,2.17-36.53,0-8.44-.6-15.86-1.81-22.24-1.21-6.39-3.18-12.08-5.91-17.06-2.73-4.98-6.53-8.78-11.39-11.39-4.87-2.61-10.75-3.92-17.66-3.92-7.4,0-13.99,1.61-19.77,4.82-5.79,3.21-10.53,7.44-14.23,12.66-3.7,5.23-6.91,11.92-9.65,20.07-2.73,8.16-4.85,16.38-6.33,24.66-1.49,8.28-2.79,17.92-3.92,28.94l-1.93,19.05c-1.45,11.66-2.17,23.19-2.17,34.61,0,7.15.34,13.52,1.03,19.11.68,5.59,1.87,10.75,3.55,15.5,1.69,4.74,3.9,8.68,6.63,11.81,2.73,3.14,6.19,5.57,10.37,7.3,4.18,1.73,9.08,2.59,14.71,2.59,5.31,0,10.15-.77,14.53-2.29,4.38-1.53,8.24-3.66,11.57-6.39,3.33-2.73,6.37-6.23,9.1-10.49,2.73-4.26,5.06-8.8,6.99-13.62s3.68-10.47,5.25-16.94c1.57-6.47,2.87-12.94,3.92-19.41,1.04-6.47,2.01-13.73,2.89-21.76l2.05-19.05ZM479.18,784.44c-2.73,26.53-8.6,39.79-17.6,39.79-6.43,0-9.65-6.91-9.65-20.74,0-4.58.44-10.93,1.33-19.05l5.67-54.5c.56-5.71,1.18-10.57,1.87-14.59.68-4.02,1.63-8.12,2.83-12.3,1.21-4.18,2.83-7.37,4.88-9.58,2.05-2.21,4.44-3.32,7.17-3.32,6.91,0,10.37,7.23,10.37,21.7,0,5.23-.4,11.25-1.21,18.09l-5.67,54.5Z"/>
      <path class="cls-2" d="M549.44,660.97c15.27-4.1,28.21-6.15,38.82-6.15,7.4,0,14.39,1.37,20.98,4.1s12.36,6.57,17.3,11.51c4.94,4.94,8.84,11.17,11.7,18.69,2.85,7.52,4.28,15.78,4.28,24.78,0,24.68-9.04,41.44-27.13,50.28,6.43,3.94,11.41,9,14.95,15.19,3.54,6.19,5.31,14.39,5.31,24.6,0,11.74-2.39,21.94-7.17,30.63-4.78,8.68-11.5,15.57-20.13,20.68-8.64,5.1-18.47,8.86-29.48,11.27-11.01,2.41-23.27,3.62-36.77,3.62l-13.14-11.57,20.5-197.62ZM531.72,856.06c10.37,0,19.96-.7,28.76-2.11,8.8-1.4,17-3.74,24.6-6.99,7.6-3.25,14.07-7.33,19.41-12.24,5.34-4.9,9.52-10.99,12.54-18.26,3.01-7.27,4.52-15.53,4.52-24.78,0-9.97-2.01-18-6.03-24.11-4.02-6.11-11.05-11.01-21.1-14.71,11.41-3.05,19.96-9.3,25.62-18.75,5.67-9.44,8.5-20.32,8.5-32.61,0-6.03-.68-11.57-2.05-16.64-1.37-5.06-3.54-9.71-6.51-13.93-2.98-4.22-7.15-7.54-12.54-9.95-5.39-2.41-11.78-3.62-19.17-3.62-8.68,0-20.86,1.97-36.53,5.91l-20.01,192.79ZM571.38,770.94c1.93-.72,3.78-1.08,5.55-1.08,7.88,0,11.82,6.59,11.82,19.77,0,9.65-2.09,17.32-6.27,23.03-4.18,5.71-9.77,8.76-16.76,9.16l5.67-50.88ZM580.06,686.66c3.38-.8,5.71-1.2,6.99-1.2,3.78,0,6.27,1.43,7.48,4.28,1.21,2.85,1.81,7.1,1.81,12.72,0,4.82-.3,9.42-.9,13.8-.6,4.38-1.57,8.52-2.89,12.42-1.33,3.9-3.18,7.01-5.55,9.34-2.37,2.33-5.17,3.5-8.38,3.5-1.93,0-3.25-.16-3.98-.48l5.42-54.38Z"/>
      <path class="cls-2" d="M638.75,857.26l20.26-197.5,36.53-4.94,11.69,13.14-20.74,200.99h-34.6l-13.14-11.69ZM672.63,854.85l20.26-197.25-31.59,4.46-19.77,192.79h31.11Z"/>
      <path class="cls-2" d="M753.99,820.01l16.64-2.89,11.33,13.26-7.96,38.58h-59.2l-13.14-11.69,20.26-197.5,36.53-4.94,11.7,13.14-16.16,152.04ZM760.26,854.85l7.11-34.61-29.18,4.94,17.6-167.59-31.59,4.46-19.77,192.79h55.83Z"/>
      <path class="cls-2" d="M784.83,857.26l20.26-197.5,36.53-4.94,11.69,13.14-20.74,200.99h-34.6l-13.14-11.69ZM818.71,854.85l20.26-197.25-31.59,4.46-19.77,192.79h31.11Z"/>
      <path class="cls-2" d="M857.14,689.67l3.74-30.87,79.22-4.94,11.57,13.02-4.1,34.36h-21.22l-17.12,167.71h-34.49l-13.14-11.69,15.8-156.02h-7.11l-13.14-11.57ZM895.48,854.85l17-167.72h21.22l3.74-30.87-74.39,4.94-3.13,25.92h21.46l-17.12,167.72h31.23Z"/>
      <path class="cls-2" d="M979.01,642.77l23.27-37.62,24.6,16.88,11.46,12.3-19.77,21.46,15.07-.96,11.33,13.14-8.2,33.28h-33.04l-3.98,37.01,24.96-3.13,11.33,13.02-9.16,36.53h-32.07l-3.98,36.89,33.64-3.98,11.33,13.02-8.08,38.34h-76.08l-13.14-11.69,20.49-197.74,36.53-2.17-16.52-14.59ZM1013.86,854.85l7.35-34.61-45.94,4.94,5.67-54.5h32.19l8.08-32.92-37.26,4.94,5.91-55.58h33.16l7.35-29.54-69.09,4.46-20.01,192.79h72.58ZM996.61,651.57l26.65-29.3-20.01-13.63-20.74,33.64,14.11,9.29Z"/>
    </g>
    <g>
      <polygon class="cls-3" points="748.41 623.43 755.56 588.61 726.21 593.59 743.92 424.97 712.14 429.46 692.24 623.43 748.41 623.43"/>
      <polygon class="cls-3" points="807.21 623.43 827.59 424.97 795.81 429.46 775.92 623.43 807.21 623.43"/>
      <path class="cls-3" d="M669.23,589.34c-9.62,2.67-16.86,4-21.71,4-3.4,0-5.84-1.11-7.34-3.34-1.5-2.22-2.24-6.08-2.24-11.59,0-3.47.4-8.93,1.21-16.37l7.64-73.99c1.21-11.08,2.85-18.96,4.91-23.66,2.06-4.69,5.8-7.32,11.22-7.88l17.71-1.82,3.4-29.72-18.32,1.21c-8.98.73-16.36,2.3-22.14,4.73-5.78,2.43-10.69,6.41-14.74,11.95-4.04,5.54-7.14,12.48-9.28,20.8-2.14,8.33-3.9,19.16-5.28,32.51l-4.73,48.04c-1.3,14.88-1.94,26.89-1.94,36.03,0,16.01,2,27.68,6,35,4,7.32,11.02,10.98,21.05,10.98,11.81,0,22.32-2.02,31.54-6.07l3.03-30.81Z"/>
      <polygon class="cls-3" points="575.37 623.43 582.77 588.61 536.55 593.59 542.25 538.76 574.64 538.76 582.77 505.64 545.28 510.61 551.23 454.69 584.59 454.69 591.98 424.97 522.48 429.46 502.34 623.43 575.37 623.43"/>
      <polygon class="cls-3" points="558.02 418.91 584.83 389.43 564.69 375.73 543.83 409.57 558.02 418.91"/>
      <path class="cls-3" d="M905.31,589.34c-9.62,2.67-16.86,4-21.71,4-3.4,0-5.84-1.11-7.34-3.34-1.5-2.22-2.25-6.08-2.25-11.59,0-3.47.41-8.93,1.21-16.37l7.64-73.99c1.22-11.08,2.85-18.96,4.91-23.66,2.07-4.69,5.8-7.32,11.22-7.88l17.71-1.82,3.4-29.72-18.32,1.21c-8.97.73-16.36,2.3-22.13,4.73-5.78,2.43-10.7,6.41-14.74,11.95-4.04,5.54-7.14,12.48-9.28,20.8-2.14,8.33-3.9,19.16-5.28,32.51l-4.73,48.04c-1.3,14.88-1.94,26.89-1.94,36.03,0,16.01,2,27.68,6,35,4,7.32,11.02,10.98,21.05,10.98,11.81,0,22.32-2.02,31.54-6.07l3.03-30.81Z"/>
      <polygon class="cls-3" points="386.12 854.85 406.38 657.6 372.02 659.05 337.17 747.91 321.14 657.6 287.38 662.06 267.6 854.85 298.71 854.85 310.04 731.39 326.8 823.99 331.51 823.99 368.28 732.84 355.02 854.85 386.12 854.85"/>
      <path class="cls-3" d="M514.62,689.01c-1.21-6.39-3.18-12.08-5.91-17.06-2.73-4.98-6.53-8.78-11.39-11.39-4.87-2.61-10.75-3.92-17.66-3.92-7.4,0-13.99,1.61-19.77,4.82-5.79,3.21-10.53,7.44-14.23,12.66-3.7,5.23-6.91,11.92-9.65,20.07-2.73,8.16-4.85,16.38-6.33,24.66-1.49,8.28-2.79,17.92-3.92,28.94l-1.93,19.05c-1.45,11.66-2.17,23.19-2.17,34.61,0,7.15.34,13.52,1.03,19.11.68,5.59,1.87,10.75,3.55,15.5,1.69,4.74,3.9,8.68,6.63,11.81,2.73,3.14,6.19,5.57,10.37,7.3,4.18,1.73,9.08,2.59,14.71,2.59,5.31,0,10.15-.77,14.53-2.29,4.38-1.53,8.24-3.66,11.57-6.39,3.33-2.73,6.37-6.23,9.1-10.49,2.73-4.26,5.06-8.8,6.99-13.62,1.93-4.82,3.68-10.47,5.25-16.94,1.57-6.47,2.87-12.94,3.92-19.41,1.04-6.47,2.01-13.73,2.89-21.77l2.05-19.05c1.45-13.91,2.17-26.08,2.17-36.53,0-8.44-.6-15.86-1.81-22.24ZM484.84,729.82l-5.67,54.5c-2.73,26.53-8.6,39.79-17.6,39.79-6.43,0-9.65-6.91-9.65-20.74,0-4.58.44-10.93,1.33-19.05l5.67-54.5c.56-5.71,1.18-10.57,1.87-14.59.68-4.02,1.63-8.12,2.83-12.3,1.21-4.18,2.83-7.37,4.89-9.58,2.05-2.21,4.44-3.32,7.17-3.32,6.91,0,10.37,7.23,10.37,21.7,0,5.23-.4,11.25-1.21,18.09Z"/>
      <path class="cls-3" d="M594.41,752.85c11.41-3.05,19.96-9.3,25.62-18.75,5.67-9.44,8.5-20.32,8.5-32.61,0-6.03-.68-11.58-2.05-16.64-1.37-5.06-3.54-9.71-6.51-13.93-2.98-4.22-7.15-7.54-12.54-9.95-5.39-2.41-11.78-3.62-19.17-3.62-8.68,0-20.86,1.97-36.53,5.91l-20.01,192.79c10.37,0,19.96-.7,28.76-2.11,8.8-1.4,17-3.74,24.6-6.99,7.6-3.25,14.07-7.33,19.41-12.24,5.34-4.9,9.52-10.99,12.54-18.26,3.01-7.27,4.52-15.53,4.52-24.78,0-9.97-2.01-18-6.03-24.11-4.02-6.11-11.05-11.01-21.1-14.71ZM582.48,812.79c-4.18,5.71-9.77,8.76-16.76,9.16l5.67-50.88c1.93-.72,3.78-1.08,5.55-1.08,7.88,0,11.82,6.59,11.82,19.77,0,9.65-2.09,17.32-6.27,23.03ZM587,738.15c-2.37,2.33-5.17,3.5-8.38,3.5-1.93,0-3.25-.16-3.98-.48l5.42-54.38c3.38-.8,5.71-1.2,6.99-1.2,3.78,0,6.27,1.43,7.48,4.28,1.21,2.85,1.81,7.09,1.81,12.72,0,4.82-.3,9.42-.9,13.8-.6,4.38-1.57,8.52-2.89,12.42-1.33,3.9-3.18,7.01-5.55,9.34Z"/>
      <polygon class="cls-3" points="672.63 854.85 692.89 657.6 661.3 662.06 641.53 854.85 672.63 854.85"/>
      <polygon class="cls-3" points="818.71 854.85 838.97 657.6 807.38 662.06 787.6 854.85 818.71 854.85"/>
      <polygon class="cls-3" points="760.26 854.85 767.37 820.25 738.2 825.19 755.8 657.6 724.21 662.06 704.44 854.85 760.26 854.85"/>
      <polygon class="cls-3" points="895.48 854.85 912.48 687.14 933.7 687.14 937.44 656.27 863.05 661.22 859.92 687.14 881.38 687.14 864.26 854.85 895.48 854.85"/>
      <polygon class="cls-3" points="1013.86 854.85 1021.21 820.25 975.27 825.19 980.94 770.69 1013.13 770.69 1021.21 737.78 983.95 742.72 989.86 687.14 1023.02 687.14 1030.37 657.6 961.29 662.06 941.27 854.85 1013.86 854.85"/>
      <path class="cls-3" d="M483.33,462.46c-1.94-9.7-4.85-17.29-8.73-22.74-3.88-5.46-8.35-9.32-13.41-11.59-5.05-2.26-11.1-3.4-18.13-3.4-11.24,0-23.74,2.06-37.48,6.19l-20.38,194.45c1.86.16,4.49.24,7.89.24,11,0,21.04-1.46,30.14-4.37,9.1-2.91,16.8-6.77,23.11-11.59,6.31-4.81,11.89-10.69,16.74-17.65,4.85-6.95,8.71-14.11,11.59-21.47,2.87-7.36,5.19-15.38,6.98-24.08,1.78-8.69,2.99-16.86,3.64-24.5.65-7.64.97-15.55.97-23.72,0-14.15-.97-26.08-2.91-35.79ZM450.7,541.67c-2.51,13.18-6.43,24.14-11.77,32.87-5.34,8.73-11.61,13.1-18.8,13.1l13.95-127.13c2.02-.56,3.84-.85,5.46-.85s3.01.16,4.18.49c1.17.33,2.49,1.23,3.94,2.73,1.46,1.5,2.63,3.58,3.52,6.25.89,2.67,1.66,6.53,2.31,11.59.65,5.05.97,11.14.97,18.26,0,15.28-1.26,29.52-3.76,42.7Z"/>
      <polygon class="cls-3" points="996.61 651.57 1023.26 622.27 1003.25 608.65 982.51 642.29 996.61 651.57"/>
    </g>
  </g>
  <g>
    <path class="cls-2" d="M359.16,1050.36h-39.57v-8.23h39.57v8.23ZM343.99,1092.06h-9.08v-49.93h9.08v49.93Z"/>
    <path class="cls-2" d="M364.09,1090.57c-2.86-1.56-5.07-3.76-6.63-6.6-1.56-2.84-2.34-6.1-2.34-9.79,0-3.5.74-6.68,2.23-9.54,1.49-2.86,3.6-5.12,6.35-6.77,2.74-1.65,5.82-2.48,9.22-2.48,3.69,0,6.83.9,9.43,2.69,2.6,1.8,4.48,4.25,5.64,7.38,1.16,3.12,1.52,6.6,1.1,10.42h-27.23v-5.89h19.01c-.1-1.56-.52-2.94-1.28-4.15-.76-1.21-1.76-2.16-3.01-2.87-1.25-.71-2.64-1.06-4.15-1.06-1.94,0-3.64.47-5.11,1.42-1.47.95-2.61,2.3-3.44,4.08-.83,1.77-1.24,3.94-1.24,6.49,0,2.36.5,4.44,1.49,6.24.99,1.8,2.47,3.2,4.43,4.22,1.96,1.02,4.27,1.52,6.91,1.52,2.36,0,4.63-.46,6.81-1.38,2.17-.92,4.07-2.16,5.67-3.72v7.52c-1.42,1.42-3.35,2.54-5.78,3.37-2.44.83-5.17,1.24-8.19,1.24-3.74,0-7.03-.78-9.89-2.34Z"/>
    <path class="cls-2" d="M415.4,1056.28c2.13.64,3.9,1.48,5.32,2.52v7.16c-1.66-1.13-3.56-2.04-5.71-2.73-2.15-.68-4.15-1.03-5.99-1.03-1.61,0-2.91.34-3.9,1.03-.99.69-1.49,1.6-1.49,2.73,0,.85.31,1.58.92,2.2.61.62,1.63,1.11,3.05,1.49l5.04,1.13c3.45.8,5.96,2.15,7.52,4.04,1.56,1.89,2.34,4.21,2.34,6.95,0,3.5-1.28,6.23-3.83,8.19s-6.17,2.94-10.85,2.94c-2.69,0-5.19-.44-7.48-1.31-2.29-.87-4.2-1.93-5.71-3.16v-7.59c2.03,1.61,4.23,2.85,6.6,3.72,2.36.88,4.56,1.31,6.6,1.31,1.8,0,3.21-.39,4.25-1.17,1.04-.78,1.56-1.78,1.56-3.01,0-1.04-.34-1.89-1.03-2.55-.69-.66-1.83-1.18-3.44-1.56l-4.11-.92c-3.55-.76-6.11-2-7.69-3.72-1.58-1.72-2.38-3.84-2.38-6.35,0-3.88,1.32-6.73,3.97-8.55,2.65-1.82,5.98-2.73,10-2.73,2.17,0,4.33.32,6.45.96Z"/>
    <path class="cls-2" d="M452.57,1056.18v7.23h-27.16v-7.23h27.16ZM440.08,1046.25v31.35c0,2.51.6,4.41,1.81,5.71,1.21,1.3,2.75,1.95,4.65,1.95,1.18,0,2.25-.13,3.19-.39.95-.26,1.89-.67,2.84-1.24v7.66c-1.32.52-2.62.92-3.9,1.21-1.28.28-2.48.42-3.62.42-2.69,0-5.07-.56-7.13-1.67s-3.68-2.79-4.86-5.04c-1.18-2.25-1.77-4.98-1.77-8.19v-31.77h8.79Z"/>
    <path class="cls-2" d="M464.59,1090.57c-2.86-1.56-5.07-3.76-6.63-6.6-1.56-2.84-2.34-6.1-2.34-9.79,0-3.5.74-6.68,2.23-9.54,1.49-2.86,3.6-5.12,6.35-6.77,2.74-1.65,5.82-2.48,9.22-2.48,3.69,0,6.83.9,9.43,2.69,2.6,1.8,4.48,4.25,5.64,7.38,1.16,3.12,1.52,6.6,1.1,10.42h-27.23v-5.89h19.01c-.1-1.56-.52-2.94-1.28-4.15-.76-1.21-1.76-2.16-3.01-2.87-1.25-.71-2.64-1.06-4.15-1.06-1.94,0-3.64.47-5.11,1.42-1.47.95-2.61,2.3-3.44,4.08-.83,1.77-1.24,3.94-1.24,6.49,0,2.36.5,4.44,1.49,6.24.99,1.8,2.47,3.2,4.43,4.22,1.96,1.02,4.27,1.52,6.91,1.52,2.36,0,4.63-.46,6.81-1.38,2.17-.92,4.07-2.16,5.67-3.72v7.52c-1.42,1.42-3.35,2.54-5.78,3.37-2.44.83-5.17,1.24-8.19,1.24-3.74,0-7.03-.78-9.89-2.34Z"/>
    <path class="cls-2" d="M524.34,1061.5l-18.08,23.33h18.08v7.23h-30.14v-5.32l18.08-23.33h-17.38v-7.23h29.43v5.32Z"/>
    <path class="cls-2" d="M555.11,1090.86c-2.55-1.37-4.54-3.32-5.96-5.85-1.42-2.53-2.13-5.45-2.13-8.76v-20.07h8.72v19.72c0,2.79.76,5,2.27,6.63,1.51,1.63,3.55,2.45,6.1,2.45s4.5-.82,5.99-2.45c1.49-1.63,2.23-3.84,2.23-6.63v-19.72h8.72v20.07c0,3.31-.71,6.23-2.13,8.76-1.42,2.53-3.4,4.48-5.96,5.85-2.55,1.37-5.53,2.06-8.94,2.06s-6.38-.69-8.94-2.06Z"/>
    <path class="cls-2" d="M598.37,1092.06h-8.65v-35.89h8.65v35.89ZM612.77,1065.79c-1.51-1.63-3.5-2.45-5.96-2.45-1.61,0-3.05.43-4.33,1.28-1.28.85-2.28,2.06-3.01,3.62-.73,1.56-1.1,3.29-1.1,5.18l-.57-9.86c.71-1.7,1.63-3.17,2.77-4.4s2.46-2.17,3.97-2.84c1.51-.66,3.17-.99,4.96-.99,2.79,0,5.26.65,7.41,1.95,2.15,1.3,3.82,3.13,5,5.5,1.18,2.37,1.77,5.15,1.77,8.37v20.92h-8.65v-19.79c0-2.7-.76-4.86-2.27-6.49Z"/>
    <path class="cls-2" d="M657.31,1092.06h-8.65v-35.89h8.65v35.89ZM659.36,1065.82c-1.37,1.7-2.06,4.02-2.06,6.95v-10.43c.94-2.13,2.36-3.83,4.25-5.11,1.89-1.28,3.9-1.92,6.03-1.92,4.11,0,7.26,1.36,9.43,4.08s3.26,6.63,3.26,11.74v20.92h-8.72v-20.21c0-2.65-.6-4.74-1.81-6.28-1.21-1.54-2.83-2.3-4.86-2.3-2.32,0-4.16.85-5.53,2.55ZM682.31,1065.82c-1.35,1.7-2.02,4.02-2.02,6.95l-2.62-8.79c.8-1.84,1.83-3.4,3.09-4.68,1.25-1.28,2.69-2.26,4.33-2.94,1.63-.68,3.44-1.03,5.42-1.03,3.97,0,7.08,1.38,9.33,4.15,2.25,2.77,3.37,6.66,3.37,11.67v20.92h-8.72v-20.21c0-2.65-.6-4.74-1.81-6.28-1.21-1.54-2.85-2.3-4.93-2.3-2.27,0-4.08.85-5.43,2.55Z"/>
    <path class="cls-2" d="M719.08,1090.43c-2.93-1.65-5.25-3.91-6.95-6.77-1.7-2.86-2.55-6.04-2.55-9.54s.85-6.62,2.55-9.5c1.7-2.88,4.02-5.15,6.95-6.81,2.93-1.65,6.19-2.48,9.79-2.48s6.8.83,9.75,2.48c2.95,1.66,5.29,3.92,7.02,6.81,1.72,2.88,2.59,6.05,2.59,9.5s-.86,6.68-2.59,9.54c-1.73,2.86-4.07,5.12-7.02,6.77-2.96,1.65-6.21,2.48-9.75,2.48s-6.86-.83-9.79-2.48ZM734.22,1083.59c1.58-.92,2.84-2.21,3.76-3.87.92-1.65,1.38-3.5,1.38-5.53s-.46-3.95-1.38-5.6c-.92-1.65-2.19-2.95-3.79-3.9-1.61-.95-3.38-1.42-5.32-1.42s-3.77.47-5.35,1.42c-1.58.95-2.84,2.25-3.76,3.9-.92,1.66-1.38,3.52-1.38,5.6s.46,3.88,1.38,5.53c.92,1.66,2.19,2.94,3.79,3.87,1.61.92,3.38,1.38,5.32,1.38s3.77-.46,5.35-1.38Z"/>
    <path class="cls-2" d="M763.37,1042.14c1.06,1.09,1.6,2.39,1.6,3.9s-.53,2.81-1.6,3.9c-1.06,1.09-2.4,1.63-4.01,1.63s-2.87-.54-3.94-1.63c-1.06-1.09-1.6-2.39-1.6-3.9s.53-2.81,1.6-3.9c1.06-1.09,2.38-1.63,3.94-1.63s2.94.54,4.01,1.63ZM763.76,1092.06h-8.65v-35.89h8.65v35.89Z"/>
    <path class="cls-2" d="M791.91,1056.28c2.13.64,3.9,1.48,5.32,2.52v7.16c-1.66-1.13-3.56-2.04-5.71-2.73-2.15-.68-4.15-1.03-5.99-1.03-1.61,0-2.91.34-3.9,1.03-.99.69-1.49,1.6-1.49,2.73,0,.85.31,1.58.92,2.2.61.62,1.63,1.11,3.05,1.49l5.04,1.13c3.45.8,5.96,2.15,7.52,4.04,1.56,1.89,2.34,4.21,2.34,6.95,0,3.5-1.28,6.23-3.83,8.19s-6.17,2.94-10.85,2.94c-2.7,0-5.19-.44-7.48-1.31-2.29-.87-4.2-1.93-5.71-3.16v-7.59c2.03,1.61,4.23,2.85,6.6,3.72,2.36.88,4.56,1.31,6.6,1.31,1.8,0,3.21-.39,4.25-1.17,1.04-.78,1.56-1.78,1.56-3.01,0-1.04-.34-1.89-1.03-2.55-.69-.66-1.83-1.18-3.44-1.56l-4.11-.92c-3.55-.76-6.11-2-7.7-3.72-1.58-1.72-2.38-3.84-2.38-6.35,0-3.88,1.32-6.73,3.97-8.55,2.65-1.82,5.98-2.73,10-2.73,2.17,0,4.33.32,6.45.96Z"/>
    <path class="cls-2" d="M841.06,1056.28c2.13.64,3.9,1.48,5.32,2.52v7.16c-1.66-1.13-3.56-2.04-5.71-2.73-2.15-.68-4.15-1.03-5.99-1.03-1.61,0-2.91.34-3.9,1.03-.99.69-1.49,1.6-1.49,2.73,0,.85.31,1.58.92,2.2.61.62,1.63,1.11,3.05,1.49l5.04,1.13c3.45.8,5.96,2.15,7.52,4.04,1.56,1.89,2.34,4.21,2.34,6.95,0,3.5-1.28,6.23-3.83,8.19s-6.17,2.94-10.85,2.94c-2.7,0-5.19-.44-7.48-1.31-2.29-.87-4.2-1.93-5.71-3.16v-7.59c2.03,1.61,4.23,2.85,6.6,3.72,2.36.88,4.56,1.31,6.6,1.31,1.8,0,3.21-.39,4.25-1.17,1.04-.78,1.56-1.78,1.56-3.01,0-1.04-.34-1.89-1.03-2.55-.69-.66-1.83-1.18-3.44-1.56l-4.11-.92c-3.55-.76-6.11-2-7.7-3.72-1.58-1.72-2.38-3.84-2.38-6.35,0-3.88,1.32-6.73,3.97-8.55,2.65-1.82,5.98-2.73,10-2.73,2.17,0,4.33.32,6.45.96Z"/>
    <path class="cls-2" d="M858.96,1091.39c-1.87-1.02-3.33-2.39-4.4-4.11-1.06-1.73-1.6-3.72-1.6-5.99s.56-4.12,1.67-5.85c1.11-1.73,2.65-3.06,4.61-4.01,1.96-.95,4.12-1.42,6.49-1.42s4.73.4,6.81,1.21c2.08.8,3.52,1.84,4.33,3.12l-.99,4.61c-.9-.95-2.08-1.7-3.55-2.27-1.47-.57-2.98-.85-4.54-.85-1.28,0-2.4.24-3.37.71-.97.47-1.73,1.11-2.27,1.92-.54.8-.82,1.68-.82,2.62,0,.99.27,1.89.82,2.69.54.8,1.31,1.45,2.3,1.95.99.5,2.1.75,3.33.75,1.37,0,2.62-.35,3.76-1.06,1.13-.71,2.04-1.64,2.73-2.8.68-1.16,1.08-2.45,1.17-3.87l.64,6.38c-.28,1.51-.93,2.86-1.95,4.04-1.02,1.18-2.29,2.1-3.83,2.77-1.54.66-3.23.99-5.07.99-2.32,0-4.41-.51-6.28-1.52ZM874.25,1066.39c-.8-1.18-1.94-2.1-3.4-2.77-1.47-.66-3.17-.99-5.11-.99s-3.78.38-5.67,1.13c-1.89.76-3.59,1.87-5.11,3.33v-7.45c1.61-1.37,3.49-2.43,5.64-3.19,2.15-.76,4.38-1.13,6.7-1.13,3.31,0,6.23.64,8.76,1.92,2.53,1.28,4.5,3.03,5.92,5.25,1.42,2.22,2.13,4.78,2.13,7.66v21.91h-8.65v-21.42c0-1.65-.4-3.07-1.21-4.25Z"/>
    <path class="cls-2" d="M901.48,1092.06h-8.65v-35.89h8.65v35.89ZM915.87,1065.79c-1.51-1.63-3.5-2.45-5.96-2.45-1.61,0-3.05.43-4.33,1.28-1.28.85-2.28,2.06-3.01,3.62-.73,1.56-1.1,3.29-1.1,5.18l-.57-9.86c.71-1.7,1.63-3.17,2.77-4.4,1.13-1.23,2.46-2.17,3.97-2.84,1.51-.66,3.17-.99,4.96-.99,2.79,0,5.26.65,7.41,1.95,2.15,1.3,3.82,3.13,5,5.5,1.18,2.37,1.77,5.15,1.77,8.37v20.92h-8.65v-19.79c0-2.7-.76-4.86-2.27-6.49Z"/>
    <path class="cls-2" d="M954.45,1056.28c2.13.64,3.9,1.48,5.32,2.52v7.16c-1.66-1.13-3.56-2.04-5.71-2.73-2.15-.68-4.15-1.03-5.99-1.03-1.61,0-2.91.34-3.9,1.03-.99.69-1.49,1.6-1.49,2.73,0,.85.31,1.58.92,2.2.61.62,1.63,1.11,3.05,1.49l5.04,1.13c3.45.8,5.96,2.15,7.52,4.04,1.56,1.89,2.34,4.21,2.34,6.95,0,3.5-1.28,6.23-3.83,8.19s-6.17,2.94-10.85,2.94c-2.7,0-5.19-.44-7.48-1.31-2.29-.87-4.2-1.93-5.71-3.16v-7.59c2.03,1.61,4.23,2.85,6.6,3.72,2.36.88,4.56,1.31,6.6,1.31,1.8,0,3.21-.39,4.25-1.17,1.04-.78,1.56-1.78,1.56-3.01,0-1.04-.34-1.89-1.03-2.55-.69-.66-1.83-1.18-3.44-1.56l-4.11-.92c-3.55-.76-6.11-2-7.7-3.72-1.58-1.72-2.38-3.84-2.38-6.35,0-3.88,1.32-6.73,3.97-8.55,2.65-1.82,5.98-2.73,10-2.73,2.17,0,4.33.32,6.45.96Z"/>
    <path class="cls-2" d="M280.51,1124.88h9.57l9.86,24.61,10-24.61h9.43l-15.89,35.89h-7.16l-15.81-35.89Z"/>
    <path class="cls-2" d="M330.02,1159.14c-2.93-1.65-5.25-3.91-6.95-6.77-1.7-2.86-2.55-6.04-2.55-9.54s.85-6.62,2.55-9.5c1.7-2.88,4.02-5.15,6.95-6.81,2.93-1.65,6.19-2.48,9.79-2.48s6.8.83,9.75,2.48c2.95,1.66,5.29,3.92,7.02,6.81,1.73,2.88,2.59,6.05,2.59,9.5s-.86,6.68-2.59,9.54c-1.73,2.86-4.07,5.12-7.02,6.77-2.96,1.65-6.21,2.48-9.75,2.48s-6.86-.83-9.79-2.48ZM345.16,1152.29c1.58-.92,2.84-2.21,3.76-3.87.92-1.65,1.38-3.5,1.38-5.53s-.46-3.95-1.38-5.6c-.92-1.65-2.19-2.95-3.79-3.9-1.61-.95-3.38-1.42-5.32-1.42s-3.77.47-5.35,1.42c-1.58.95-2.84,2.25-3.76,3.9-.92,1.66-1.38,3.52-1.38,5.6s.46,3.88,1.38,5.53c.92,1.66,2.19,2.94,3.79,3.87,1.61.92,3.38,1.38,5.32,1.38s3.77-.46,5.35-1.38Z"/>
    <path class="cls-2" d="M374.3,1110.84c1.06,1.09,1.6,2.39,1.6,3.9s-.53,2.81-1.6,3.9c-1.06,1.09-2.4,1.63-4.01,1.63s-2.87-.54-3.94-1.63c-1.06-1.09-1.6-2.39-1.6-3.9s.53-2.81,1.6-3.9c1.06-1.09,2.38-1.63,3.94-1.63s2.94.54,4.01,1.63ZM374.69,1160.77h-8.65v-35.89h8.65v35.89Z"/>
    <path class="cls-2" d="M407.32,1124.88v7.23h-27.16v-7.23h27.16ZM394.83,1114.95v31.35c0,2.51.6,4.41,1.81,5.71,1.21,1.3,2.75,1.95,4.65,1.95,1.18,0,2.25-.13,3.19-.39.95-.26,1.89-.67,2.84-1.24v7.66c-1.32.52-2.62.92-3.9,1.21-1.28.28-2.48.42-3.62.42-2.69,0-5.07-.56-7.13-1.67s-3.68-2.79-4.86-5.04c-1.18-2.25-1.77-4.98-1.77-8.19v-31.77h8.79Z"/>
    <path class="cls-2" d="M420.72,1159.56c-2.55-1.37-4.54-3.32-5.96-5.85-1.42-2.53-2.13-5.45-2.13-8.76v-20.07h8.72v19.72c0,2.79.76,5,2.27,6.63,1.51,1.63,3.55,2.45,6.1,2.45s4.5-.82,5.99-2.45c1.49-1.63,2.23-3.84,2.23-6.63v-19.72h8.72v20.07c0,3.31-.71,6.23-2.13,8.76-1.42,2.53-3.4,4.48-5.96,5.85-2.55,1.37-5.53,2.06-8.94,2.06s-6.38-.69-8.94-2.06Z"/>
    <path class="cls-2" d="M455.33,1124.88h8.65v7.87c.43-1.65,1.12-3.14,2.09-4.47.97-1.32,2.16-2.36,3.58-3.12,1.42-.76,2.95-1.13,4.61-1.13.95,0,1.91.12,2.91.35.99.24,1.89.59,2.69,1.06v8.3c-.85-.57-1.81-.98-2.87-1.24-1.06-.26-2.14-.39-3.23-.39-1.8,0-3.43.5-4.89,1.49-1.47.99-2.64,2.41-3.51,4.25-.88,1.84-1.34,3.97-1.38,6.38v16.52h-8.65v-35.89Z"/>
    <path class="cls-2" d="M490.61,1159.28c-2.86-1.56-5.07-3.76-6.63-6.6-1.56-2.84-2.34-6.1-2.34-9.79,0-3.5.74-6.68,2.23-9.54,1.49-2.86,3.6-5.12,6.35-6.77,2.74-1.65,5.82-2.48,9.22-2.48,3.69,0,6.83.9,9.43,2.69,2.6,1.8,4.48,4.25,5.64,7.38,1.16,3.12,1.52,6.6,1.1,10.42h-27.23v-5.89h19.01c-.1-1.56-.52-2.94-1.28-4.15-.76-1.21-1.76-2.16-3.01-2.87-1.25-.71-2.64-1.06-4.15-1.06-1.94,0-3.64.47-5.11,1.42-1.47.95-2.61,2.3-3.44,4.08-.83,1.77-1.24,3.94-1.24,6.49,0,2.36.5,4.44,1.49,6.24.99,1.8,2.47,3.2,4.43,4.22,1.96,1.02,4.27,1.52,6.91,1.52,2.36,0,4.63-.46,6.81-1.38,2.17-.92,4.07-2.16,5.67-3.72v7.52c-1.42,1.42-3.35,2.54-5.78,3.37-2.44.83-5.17,1.24-8.19,1.24-3.74,0-7.03-.78-9.89-2.34Z"/>
    <path class="cls-2" d="M531.78,1149.53c1.04.54,1.84,1.3,2.41,2.27.57.97.85,2.09.85,3.37,0,.85-.14,1.62-.43,2.3-.28.69-.8,1.71-1.56,3.08l-.35.64-5.32,9.29h-6.1l3.9-9.57c-1.13-.47-2.01-1.21-2.62-2.2-.61-.99-.92-2.17-.92-3.55,0-1.89.61-3.44,1.84-4.65,1.23-1.21,2.81-1.81,4.75-1.81,1.32,0,2.51.27,3.55.82Z"/>
    <path class="cls-2" d="M566.88,1160.77h-8.65v-35.89h8.65v35.89ZM568.94,1134.53c-1.37,1.7-2.06,4.02-2.06,6.95v-10.43c.94-2.13,2.36-3.83,4.25-5.11,1.89-1.28,3.9-1.92,6.03-1.92,4.11,0,7.26,1.36,9.43,4.08,2.17,2.72,3.26,6.63,3.26,11.74v20.92h-8.72v-20.21c0-2.65-.6-4.74-1.81-6.28-1.21-1.54-2.83-2.3-4.86-2.3-2.32,0-4.16.85-5.53,2.55ZM591.88,1134.53c-1.35,1.7-2.02,4.02-2.02,6.95l-2.62-8.79c.8-1.84,1.83-3.4,3.09-4.68,1.25-1.28,2.69-2.26,4.33-2.94,1.63-.68,3.44-1.03,5.43-1.03,3.97,0,7.08,1.38,9.33,4.15,2.25,2.77,3.37,6.66,3.37,11.67v20.92h-8.72v-20.21c0-2.65-.6-4.74-1.81-6.28-1.21-1.54-2.85-2.3-4.93-2.3-2.27,0-4.08.85-5.43,2.55Z"/>
    <path class="cls-2" d="M628.65,1159.14c-2.93-1.65-5.25-3.91-6.95-6.77-1.7-2.86-2.55-6.04-2.55-9.54s.85-6.62,2.55-9.5c1.7-2.88,4.02-5.15,6.95-6.81,2.93-1.65,6.19-2.48,9.79-2.48s6.8.83,9.75,2.48c2.95,1.66,5.29,3.92,7.02,6.81,1.73,2.88,2.59,6.05,2.59,9.5s-.86,6.68-2.59,9.54c-1.73,2.86-4.07,5.12-7.02,6.77-2.96,1.65-6.21,2.48-9.75,2.48s-6.86-.83-9.79-2.48ZM643.8,1152.29c1.58-.92,2.84-2.21,3.76-3.87.92-1.65,1.38-3.5,1.38-5.53s-.46-3.95-1.38-5.6c-.92-1.65-2.19-2.95-3.79-3.9-1.61-.95-3.38-1.42-5.32-1.42s-3.77.47-5.35,1.42c-1.58.95-2.84,2.25-3.76,3.9-.92,1.66-1.38,3.52-1.38,5.6s.46,3.88,1.38,5.53c.92,1.66,2.19,2.94,3.79,3.87,1.61.92,3.38,1.38,5.32,1.38s3.77-.46,5.35-1.38Z"/>
    <path class="cls-2" d="M687.45,1124.88v7.23h-27.16v-7.23h27.16ZM674.96,1114.95v31.35c0,2.51.6,4.41,1.81,5.71,1.21,1.3,2.75,1.95,4.65,1.95,1.18,0,2.25-.13,3.19-.39.95-.26,1.89-.67,2.84-1.24v7.66c-1.32.52-2.62.92-3.9,1.21-1.28.28-2.48.42-3.62.42-2.7,0-5.07-.56-7.13-1.67s-3.68-2.79-4.86-5.04c-1.18-2.25-1.77-4.98-1.77-8.19v-31.77h8.79Z"/>
    <path class="cls-2" d="M699.93,1159.14c-2.93-1.65-5.25-3.91-6.95-6.77-1.7-2.86-2.55-6.04-2.55-9.54s.85-6.62,2.55-9.5c1.7-2.88,4.02-5.15,6.95-6.81,2.93-1.65,6.19-2.48,9.79-2.48s6.8.83,9.75,2.48c2.95,1.66,5.29,3.92,7.02,6.81,1.72,2.88,2.59,6.05,2.59,9.5s-.86,6.68-2.59,9.54c-1.73,2.86-4.07,5.12-7.02,6.77-2.96,1.65-6.21,2.48-9.75,2.48s-6.86-.83-9.79-2.48ZM715.07,1152.29c1.58-.92,2.84-2.21,3.76-3.87.92-1.65,1.38-3.5,1.38-5.53s-.46-3.95-1.38-5.6c-.92-1.65-2.19-2.95-3.79-3.9-1.61-.95-3.38-1.42-5.32-1.42s-3.77.47-5.35,1.42c-1.58.95-2.84,2.25-3.76,3.9-.92,1.66-1.38,3.52-1.38,5.6s.46,3.88,1.38,5.53c.92,1.66,2.19,2.94,3.79,3.87,1.61.92,3.38,1.38,5.32,1.38s3.77-.46,5.35-1.38Z"/>
    <path class="cls-2" d="M744.18,1149.53c1.04.54,1.84,1.3,2.41,2.27.57.97.85,2.09.85,3.37,0,.85-.14,1.62-.43,2.3-.28.69-.8,1.71-1.56,3.08l-.35.64-5.32,9.29h-6.1l3.9-9.57c-1.13-.47-2.01-1.21-2.62-2.2-.62-.99-.92-2.17-.92-3.55,0-1.89.61-3.44,1.84-4.65,1.23-1.21,2.81-1.81,4.75-1.81,1.32,0,2.51.27,3.55.82Z"/>
    <path class="cls-2" d="M789.57,1124.99c2.13.64,3.9,1.48,5.32,2.52v7.16c-1.66-1.13-3.56-2.04-5.71-2.73-2.15-.68-4.15-1.03-5.99-1.03-1.61,0-2.91.34-3.9,1.03-.99.69-1.49,1.6-1.49,2.73,0,.85.31,1.58.92,2.2.61.62,1.63,1.11,3.05,1.49l5.04,1.13c3.45.8,5.96,2.15,7.52,4.04,1.56,1.89,2.34,4.21,2.34,6.95,0,3.5-1.28,6.23-3.83,8.19s-6.17,2.94-10.85,2.94c-2.7,0-5.19-.44-7.48-1.31-2.29-.87-4.2-1.93-5.71-3.16v-7.59c2.03,1.61,4.23,2.85,6.6,3.72,2.36.88,4.56,1.31,6.6,1.31,1.8,0,3.21-.39,4.25-1.17,1.04-.78,1.56-1.78,1.56-3.01,0-1.04-.34-1.89-1.03-2.55-.69-.66-1.83-1.18-3.44-1.56l-4.11-.92c-3.55-.76-6.11-2-7.7-3.72-1.58-1.72-2.38-3.84-2.38-6.35,0-3.88,1.32-6.73,3.97-8.55,2.65-1.82,5.98-2.73,10-2.73,2.17,0,4.33.32,6.45.96Z"/>
    <path class="cls-2" d="M810.81,1159.24c-2.96-1.58-5.28-3.79-6.99-6.63-1.7-2.84-2.55-6.1-2.55-9.79s.85-6.89,2.55-9.75c1.7-2.86,4.03-5.08,6.99-6.67,2.95-1.58,6.3-2.38,10.04-2.38,1.94,0,3.91.34,5.92,1.03,2.01.69,3.72,1.71,5.14,3.08v8.79c-1.32-1.61-2.9-2.84-4.72-3.69-1.82-.85-3.79-1.28-5.92-1.28s-4.04.47-5.75,1.42c-1.7.95-3.04,2.25-4.01,3.9-.97,1.66-1.45,3.5-1.45,5.53s.48,3.95,1.45,5.6c.97,1.66,2.31,2.94,4.01,3.87,1.7.92,3.62,1.38,5.75,1.38s4.14-.44,6.03-1.31c1.89-.87,3.52-2.14,4.89-3.79v8.87c-1.47,1.37-3.24,2.41-5.32,3.12-2.08.71-4.09,1.06-6.03,1.06-3.74,0-7.08-.79-10.04-2.38Z"/>
    <path class="cls-2" d="M846.59,1159.14c-2.93-1.65-5.25-3.91-6.95-6.77-1.7-2.86-2.55-6.04-2.55-9.54s.85-6.62,2.55-9.5c1.7-2.88,4.02-5.15,6.95-6.81,2.93-1.65,6.19-2.48,9.79-2.48s6.8.83,9.75,2.48c2.95,1.66,5.29,3.92,7.02,6.81,1.72,2.88,2.59,6.05,2.59,9.5s-.86,6.68-2.59,9.54c-1.73,2.86-4.07,5.12-7.02,6.77-2.96,1.65-6.21,2.48-9.75,2.48s-6.86-.83-9.79-2.48ZM861.73,1152.29c1.58-.92,2.84-2.21,3.76-3.87.92-1.65,1.38-3.5,1.38-5.53s-.46-3.95-1.38-5.6c-.92-1.65-2.19-2.95-3.79-3.9-1.61-.95-3.38-1.42-5.32-1.42s-3.77.47-5.35,1.42c-1.58.95-2.84,2.25-3.76,3.9-.92,1.66-1.38,3.52-1.38,5.6s.46,3.88,1.38,5.53c.92,1.66,2.19,2.94,3.79,3.87,1.61.92,3.38,1.38,5.32,1.38s3.77-.46,5.35-1.38Z"/>
    <path class="cls-2" d="M889.85,1159.14c-2.93-1.65-5.25-3.91-6.95-6.77-1.7-2.86-2.55-6.04-2.55-9.54s.85-6.62,2.55-9.5c1.7-2.88,4.02-5.15,6.95-6.81,2.93-1.65,6.19-2.48,9.79-2.48s6.8.83,9.75,2.48c2.95,1.66,5.29,3.92,7.02,6.81,1.72,2.88,2.59,6.05,2.59,9.5s-.86,6.68-2.59,9.54c-1.73,2.86-4.07,5.12-7.02,6.77-2.96,1.65-6.21,2.48-9.75,2.48s-6.86-.83-9.79-2.48ZM904.99,1152.29c1.58-.92,2.84-2.21,3.76-3.87.92-1.65,1.38-3.5,1.38-5.53s-.46-3.95-1.38-5.6c-.92-1.65-2.19-2.95-3.79-3.9-1.61-.95-3.38-1.42-5.32-1.42s-3.77.47-5.35,1.42c-1.58.95-2.84,2.25-3.76,3.9-.92,1.66-1.38,3.52-1.38,5.6s.46,3.88,1.38,5.53c.92,1.66,2.19,2.94,3.79,3.87,1.61.92,3.38,1.38,5.32,1.38s3.77-.46,5.35-1.38Z"/>
    <path class="cls-2" d="M948.64,1124.88v7.23h-27.16v-7.23h27.16ZM936.16,1114.95v31.35c0,2.51.6,4.41,1.81,5.71,1.21,1.3,2.75,1.95,4.65,1.95,1.18,0,2.25-.13,3.19-.39.95-.26,1.89-.67,2.84-1.24v7.66c-1.32.52-2.62.92-3.9,1.21-1.28.28-2.48.42-3.62.42-2.7,0-5.07-.56-7.13-1.67s-3.68-2.79-4.86-5.04c-1.18-2.25-1.77-4.98-1.77-8.19v-31.77h8.79Z"/>
    <path class="cls-2" d="M960.66,1159.28c-2.86-1.56-5.07-3.76-6.63-6.6-1.56-2.84-2.34-6.1-2.34-9.79,0-3.5.75-6.68,2.23-9.54,1.49-2.86,3.6-5.12,6.35-6.77,2.74-1.65,5.82-2.48,9.22-2.48,3.69,0,6.83.9,9.43,2.69,2.6,1.8,4.48,4.25,5.64,7.38,1.16,3.12,1.53,6.6,1.1,10.42h-27.23v-5.89h19.01c-.1-1.56-.52-2.94-1.28-4.15-.76-1.21-1.76-2.16-3.01-2.87-1.25-.71-2.64-1.06-4.15-1.06-1.94,0-3.64.47-5.11,1.42-1.47.95-2.61,2.3-3.44,4.08-.83,1.77-1.24,3.94-1.24,6.49,0,2.36.5,4.44,1.49,6.24s2.47,3.2,4.43,4.22c1.96,1.02,4.27,1.52,6.92,1.52,2.36,0,4.63-.46,6.81-1.38s4.07-2.16,5.67-3.72v7.52c-1.42,1.42-3.35,2.54-5.78,3.37-2.44.83-5.17,1.24-8.19,1.24-3.74,0-7.03-.78-9.89-2.34Z"/>
    <path class="cls-2" d="M993.04,1124.88h8.65v7.87c.43-1.65,1.12-3.14,2.09-4.47.97-1.32,2.16-2.36,3.58-3.12,1.42-.76,2.95-1.13,4.61-1.13.95,0,1.92.12,2.91.35.99.24,1.89.59,2.7,1.06v8.3c-.85-.57-1.81-.98-2.87-1.24-1.06-.26-2.14-.39-3.23-.39-1.8,0-3.43.5-4.89,1.49-1.47.99-2.64,2.41-3.51,4.25s-1.34,3.97-1.38,6.38v16.52h-8.65v-35.89Z"/>
  </g>
</svg>